<?xml version="1.0" encoding="utf-8"?>
<!-- Generator: Adobe Illustrator 16.0.0, SVG Export Plug-In . SVG Version: 6.00 Build 0)  -->
<!DOCTYPE svg PUBLIC "-//W3C//DTD SVG 1.1//EN" "http://www.w3.org/Graphics/SVG/1.1/DTD/svg11.dtd">
<svg version="1.1" id="Layer_1" xmlns="http://www.w3.org/2000/svg" xmlns:xlink="http://www.w3.org/1999/xlink" x="0px" y="0px"
	 width="25.947px" height="26.955px" viewBox="0 0 25.947 26.955" enable-background="new 0 0 25.947 26.955" xml:space="preserve">
<g>
	<g>
		<path fill="#FFFFFF" d="M14.925,26.377l8.937-8.938c0.771-0.771,0.771-2.021,0-2.792c-0.771-0.771-2.306-0.771-3.075,0
			l-5.728,5.44V1.95c0-1.09-0.91-1.975-2-1.975c-1.091,0-2,0.885-2,1.975v18.388l-5.379-5.688c-0.771-0.771-1.867-0.771-2.64,0
			c-0.385,0.385-0.5,0.892-0.5,1.396c0,0.509,0.229,1.014,0.617,1.396l8.955,8.938C12.884,27.147,14.155,27.147,14.925,26.377z"/>
	</g>
</g>
</svg>
