<?xml version="1.0" encoding="utf-8"?>
<!-- Generator: Adobe Illustrator 16.0.0, SVG Export Plug-In . SVG Version: 6.00 Build 0)  -->
<!DOCTYPE svg PUBLIC "-//W3C//DTD SVG 1.1//EN" "http://www.w3.org/Graphics/SVG/1.1/DTD/svg11.dtd">
<svg version="1.1" id="Layer_1" xmlns="http://www.w3.org/2000/svg" xmlns:xlink="http://www.w3.org/1999/xlink" x="0px" y="0px"
	 width="26.979px" height="22.018px" viewBox="0 0 26.979 22.018" enable-background="new 0 0 26.979 22.018" xml:space="preserve">
<g>
	<g>
		<path fill="#FFFFFF" d="M26.401,9.633l-8.937-8.936c-0.771-0.771-2.021-0.771-2.792,0c-0.771,0.771-0.771,2.306,0,3.076
			L20.114,9.5H1.975C0.885,9.5,0,10.41,0,11.5s0.885,2,1.975,2h18.387l-5.688,5.379c-0.771,0.771-0.771,1.867,0,2.639
			c0.385,0.385,0.891,0.5,1.396,0.5c0.507,0,1.012-0.23,1.396-0.617l8.937-8.955C27.172,11.674,27.172,10.404,26.401,9.633z"/>
	</g>
</g>
</svg>
