<?xml version="1.0" encoding="utf-8"?>
<!-- Generator: Adobe Illustrator 16.0.0, SVG Export Plug-In . SVG Version: 6.00 Build 0)  -->
<!DOCTYPE svg PUBLIC "-//W3C//DTD SVG 1.1//EN" "http://www.w3.org/Graphics/SVG/1.1/DTD/svg11.dtd">
<svg version="1.1" id="Layer_1" xmlns="http://www.w3.org/2000/svg" xmlns:xlink="http://www.w3.org/1999/xlink" x="0px" y="0px"
	 width="22.221px" height="22.221px" viewBox="0 0 22.221 22.221" enable-background="new 0 0 22.221 22.221" xml:space="preserve">
<g>
	<g>
		<g>
			<path fill="#3D5A97" d="M20.992,22.221c0.678,0,1.229-0.549,1.229-1.227V1.227C22.22,0.549,21.67,0,20.992,0H1.227
				C0.55,0,0,0.549,0,1.227v19.769c0,0.678,0.55,1.227,1.228,1.227L20.992,22.221L20.992,22.221z"/>
			<path fill="#FFFFFF" d="M15.329,22.221v-8.604h2.888l0.436-3.354H15.33V8.121c0-0.972,0.271-1.631,1.663-1.631h1.774V3.486
				c-0.307-0.036-1.359-0.127-2.587-0.127c-2.56,0-4.313,1.562-4.313,4.433v2.471H8.972v3.354h2.896v8.604H15.329z"/>
		</g>
	</g>
</g>
</svg>
