<?xml version="1.0" encoding="utf-8"?>
<!-- Generator: Adobe Illustrator 16.0.0, SVG Export Plug-In . SVG Version: 6.00 Build 0)  -->
<!DOCTYPE svg PUBLIC "-//W3C//DTD SVG 1.1//EN" "http://www.w3.org/Graphics/SVG/1.1/DTD/svg11.dtd">
<svg version="1.1" id="Layer_1" xmlns="http://www.w3.org/2000/svg" xmlns:xlink="http://www.w3.org/1999/xlink" x="0px" y="0px"
	 width="98.6px" height="74.8px" viewBox="0 0 98.6 74.8" enable-background="new 0 0 98.6 74.8" xml:space="preserve">
<g>
	<g>
		<g>
			<path fill="#B3A633" d="M45.5,13C44,11,42,9.6,39.8,8.6c0.5-2.3,0.8-6.1-1.9-7.3c-1.2-0.5-1.9-0.7-3.2-0.4
				c-2.9,0.8-4.1,1.2-6.8-0.3C24.6-1.1,16,0.6,16.9,5.7c0,0.2,0.4,0,0.5-0.1c2-2.9,5-5.3,8.6-3.9c1.2,0.5,2.3,1.4,3.7,1.6
				C30.8,3.5,31.9,3.6,33,3c4.7-2.5,6.2,1.8,6.1,5.2c-4.9-2-10.9-2.4-15.7-3c-0.2,0-0.5,0.4-0.3,0.4c8.4,1.9,19.1,3.4,22.7,12.4
				c0.6-0.5,1.2-1,1.9-1.6C47.1,15.3,46.3,14.1,45.5,13z"/>
			<path fill="#B3A633" d="M56,37.6c-3-0.3-5.3-0.7-7.4-3.1c-2.9-3.2-0.8-7,0.1-10.5c0.6-2.4,0.1-5.1-1-7.5c-0.6,0.5-1.2,1-1.9,1.6
				c0,0.1,0.1,0.1,0.1,0.2c2.2,5.5-2,10.1-0.3,15.3c1.2,3.8,5.4,5.7,9.1,5.5c-1.3,0.9-2.6,1.7-4.3,1.6c-0.7-0.1-1.5,0.7-1.5,1.4
				c0,1.4-0.1,2.9,0,4.3c-3.6,2.4-9.7,0-12.9-2.2c-0.3-0.2-0.8,0.3-0.6,0.5c0.1,0.1,0.2,0.1,0.2,0.2c0,0,0,0.1,0,0.1
				c-0.3,1.9,2.2,4,3.7,4.9c1.8,1.2,4.3,2.5,6.6,2.4c-4.6,8.9-23.3,5-22.4,18.4c0.1,1.1,1.6,0,1.7-0.6c0.8-3.6,1.5-6.2,5.1-7.9
				c2.5-1.2,5.4-1.7,8.1-2.6c4.1-1.3,7.5-3.6,8.8-7.9c0,0,0,0,0,0c0.2-0.3,0.3-0.6,0-0.8c-0.9-0.4-2-0.5-3.1-0.7
				c-1.1-0.3-2.1-0.8-3.1-1.3c-1.1-0.6-2.2-1.3-3.1-2.1c-0.2-0.2-0.4-0.4-0.6-0.7c3.5,2.4,8.4,3.8,12.1,1.5c0.1,0,0.1-0.1,0.2-0.1
				c0,0,0,0,0,0c0.2,0.1,0.6-0.2,0.7-0.3c0.9-1.3,0.8-3,0.7-4.7c1.9-0.4,3.5-1.6,5-3c0.3-0.3,0.3-0.7,0.2-0.8
				C56.4,38.2,56.6,37.7,56,37.6z"/>
			<path fill="#B3A633" d="M35.2,30.8c-2.1,0-4.5,0.9-6.1,2.4c-0.2,0.1-0.3,0.5,0.1,0.5c1.6-0.2,3-1,4.7-1c1,0,1.9,0.2,2.6,0.8
				c0.7,0.6,0.7,1.6,1.7,1.8c0.5,0.1,1-0.3,1.2-0.8C40.3,32,37.1,30.7,35.2,30.8z"/>
			<path fill="#B3A633" d="M5,28.6c1.7-0.2,3.1,1,4.6,1c1.8,1.8,5,6.6,8,4.6c1.5-1,2.4-3.1,2.2-4.9c-0.3-2.6-2.3-4.6-2.8-7.1
				c0-0.1-0.1-0.2-0.2-0.2c-0.1,0-0.2,0-0.3-0.1c-0.2,0-0.4,0.1-0.5,0.2c-0.9,1.1-0.3,2.5,0.2,3.6c0.8,2,2.3,4,1.6,6.2
				c-1,3.1-5.8-1.4-7.6-2.7c0,0,0-0.1,0-0.1c-0.1-2-3.8-2.2-5.3-1.9c-2.2,0.4-4,1.6-5,3.6c-1.2,2.4,0,4.9,1.6,6.7
				c1.5,1.7,4.7,3.8,7,3.6c0.1,0,0.3-0.2,0.2-0.3C8.1,39.6,6,39,4.8,38c-1.5-1.3-2.9-2.6-3.5-4.5C0.4,30.8,2.5,28.8,5,28.6z"/>
			<path fill="#B3A633" d="M16.8,21.5c1.2-1.4,4.9-0.6,6.5-0.8c1.9-0.1,3.4-0.8,4.9-1.9c1.4-1.1,2.6-3.5,2.4-5.3
				c-0.3-2.3-2.4-4.2-4.3-5.4c-0.6-0.3-1.6,0.8-1.2,1.3c1.1,1.7,3,2.6,3.6,4.7c0.6,1.9-1.3,3.9-2.8,4.7c-1.1,0.5-2.4,0.6-3.5,0.8
				c-2,0.2-4.7,0-5.9,1.9C16.3,21.7,16.7,21.7,16.8,21.5z"/>
			<path fill="#B3A633" d="M85.5,72.9c-2.3-1-5.6-0.1-8.1-0.4c-3.9-0.6-6.5-2.9-8.3-6.2c1.2,0.1,2.6-0.3,3.6-0.7
				c1.5-0.6,2.7-1.8,3.3-3.3c0.1-0.3,0-0.4-0.2-0.3c0.1-0.2,0-0.3-0.3-0.3c-0.7,0-1.3,0.3-1.9,0.5c-1,0.3-2,0.4-3,0.4
				c-2.1,0-3.3-1.2-3.5-3.1c0.1-0.1,0.2-0.2,0.3-0.3c0.8-1-1-1.1-1.5-1.2c-0.8-0.2-1.9-0.4-2.3-1.1c-0.3-0.5-0.6-0.8-0.6-1.4
				c0-0.4,0.1-0.5,0.3-0.6c3,1.1,5.2-0.6,6.4-3c-0.3-0.3-0.7-0.7-1-1c-0.9,2-2.7,2.8-5.4,3.1c-0.1,0-0.2,0.1-0.3,0.1
				c-0.2,0.1-0.4,0.2-0.5,0.2c-0.7,0.5-1.1,1.1-1.1,2c0.1,2,2.3,2.7,3.8,3.1c0.3,0.1,0.6,0.2,0.9,0.2c-0.2,2.2,0.8,3.8,3.1,4.3
				c1.4,0.3,3.7,0.1,5.2-0.8c-0.6,0.7-1.5,1.3-2.4,1.6c-1.1,0.3-2.1,0.1-3.2,0.2c-0.3,0-1.6,0.8-0.9,1.1c0,0,0.1,0,0.2,0.1
				c-0.1,0.1-0.2,0.3-0.2,0.4c1.7,7.3,10.6,10.2,17.2,7.2C85.3,73.6,85.8,73.1,85.5,72.9z"/>
			<g>
				<path fill="#B3A633" d="M70.8,48.2c0.6-4.5,0.1-8.4,3.5-11.9c4.3-4.4,9.9-5.8,15.8-4.7c0.1,0,0.5-0.2,0.4-0.3
					c-3.7-5.3-14,1.7-17.1,4.5c-2.1,1.9-3.2,4.2-3.7,7c-0.3,1.9-0.3,3.9-0.5,5.9c-0.1,0.9-0.3,1.6-0.5,2.2c0.3,0.3,0.7,0.7,1,1
					C70.2,50.6,70.6,49.4,70.8,48.2z"/>
				<path fill="#B3A633" d="M75.3,51.9c1.3-0.3,2.6-0.2,3.8,0.1c0.6,0.2,1.2,0.5,1.7,0.9c0.4,0.4,0.4,0.9,0.9,1.2
					c0.3,0.2,0.8,0,1.1-0.3c0,0,0,0,0.1,0c0,0,0-0.1,0.1-0.1c0,0,0.1-0.1,0.1-0.1c0,0,0.1-0.1,0.1-0.1c0.2-0.3,0.3-0.8,0-1.1
					c-0.5-0.8-1.3-1.2-2.1-1.4c-1.7-0.6-3.9-0.3-5.6,0.3C75,51.3,74.5,52.1,75.3,51.9z"/>
				<path fill="#B3A633" d="M74.4,39.5c1.9-0.4,6.9-3.8,4,0c-0.1,0.2-0.3,0.7,0.1,0.7c1.7,0.1,6.8-1.3,4.2,2.4
					c-0.2,0.2-0.3,0.6,0.1,0.7c1.6,0.3,1.4,0.3,3,0.4c2.8,0.1,2,1.2,1.5,2.9c-0.1,0.2,0.1,0.4,0.3,0.4c1.2,0.2,2.3,0.1,3.5,0.1
					c5.1-0.4,0.5,5.9-0.1,6.8c-0.3,0.4-0.1,0.9,0.5,0.7c7.8-2.7,6.6,7.8,1.8,6.7c-0.5-0.1-1.8,0.8-1.1,1.2
					c5.8,3.5,10.8-11.8,0.8-9.4c1.2-1.7,2.3-3.6,1.8-5.6c-1-3.5-6.7,0.9-5.1-4.4c0.1-0.2-0.1-0.4-0.3-0.4c-0.5,0-5-0.4-4.7-0.8
					c0.4-0.6,0.8-1.9,1-2.6c0.1-0.3-0.2-0.4-0.4-0.4c-2.5,0.1-6.6,1.8-3.7-1.8c0.2-0.3,0.2-0.7-0.3-0.7c-1.4,0.1-1.2,0.1-2.5,0.5
					c0.2-0.1-5.4,2.6-3.3-0.6c0,0,0,0,0,0c-1.3,0.9-1.5,1.5-1.5,3.1C74,39.5,74.3,39.5,74.4,39.5z"/>
			</g>
		</g>
	</g>
</g>
</svg>
