<?xml version="1.0" encoding="utf-8"?>
<!-- Generator: Adobe Illustrator 16.0.0, SVG Export Plug-In . SVG Version: 6.00 Build 0)  -->
<!DOCTYPE svg PUBLIC "-//W3C//DTD SVG 1.1//EN" "http://www.w3.org/Graphics/SVG/1.1/DTD/svg11.dtd">
<svg version="1.1" id="Layer_1" xmlns="http://www.w3.org/2000/svg" xmlns:xlink="http://www.w3.org/1999/xlink" x="0px" y="0px"
	 width="83px" height="75.8px" viewBox="0 0 83 75.8" enable-background="new 0 0 83 75.8" xml:space="preserve">
<g>
	<g>
		<g>
			<g>
				<path fill="#EB7723" d="M68.5,10.5c-0.5,2.6-1.4,4.9-2.4,7.2c0.7-0.8,1.3-1.6,2-2.5c0.5-1.6,0.8-3.2,1-4.8
					C69.1,10.1,68.5,10.3,68.5,10.5z"/>
				<path fill="#EB7723" d="M80.8,54.8c0.1,0.4,0.2,0.9,0.3,1.3c0.2,0.9,1.9,0,1.9-0.7c-0.4-4.7-1-9.3-1.1-14
					c-0.1-2.3-0.5-5.7-0.4-8.9c0.2-0.1,0.5-0.2,0.7-0.2c0.6-0.2,1.2-1.4,0.1-1.1c-0.3,0.1-0.5,0.1-0.8,0.2c0.2-2,0.6-3.9,1.4-5.3
					c0.2-0.4-0.3-0.4-0.6-0.2c0.4-0.4,0.5-0.9-0.3-0.8c-0.8,0.1-1.7,0.3-2.6,0.4c-0.1-1.2-0.8-2-2.2-1.9c0.2-0.9,0-1.7-0.3-2.4
					c1.6-0.5,2.9-1.7,3.3-3.6c0.3-1.1-0.2-2.2-1.1-2.9c-1.4-1.1-2.4,0.7-0.9-1.4c0.8-1.2,1-2.5,0.5-3.8c-0.5-1.2-4.5-1.7-4.4-2.4
					c0-0.1,0-0.2,0-0.3c-0.4,0.6-0.8,1.1-1.3,1.7c0,0.1,0.1,0.2,0.3,0.2c4.8-0.1,5.5,2.8,2.6,6.2c-0.3,0.3-0.1,0.6,0.3,0.5
					c3.8-1,3.6,4,0.2,5c-0.9-1.3-2.6-1.8-4.1-0.8c-0.4-2.1-2.6-2.3-4.3-1.3c1-1,1.9-2,2.6-3.1c0.2-0.3-0.3-0.2-0.4,0
					c-1.1,1.4-2.5,2.5-3.9,3.7c0.5-1.2,1-2.4,1.3-3.6c-0.7,0.8-1.3,1.6-2,2.5c-0.1,0.2-0.2,0.4-0.3,0.7c-0.1,0-0.1-0.1-0.2-0.1
					c-0.4,0.5-0.8,1-1.3,1.6c0.1,0.1,0.2,0.2,0.4,0.4c0.1,0.1,0.1,0.1,0.1,0.2c-0.1,0.3,0,0.4,0.2,0.4c1.2,2,1.2,4.6-0.4,6.2
					c-1.7,0.1-3.5,0.2-5.2,0.3c0.1-0.6,0.2-1.2,0.2-1.8c-0.5,0.6-1,1.2-1.5,1.8c0,0,0,0.1,0,0.1c0,0-0.1,0-0.1,0
					c-0.4,0.5-0.9,1-1.3,1.6c6.9,0.1,14.2-0.4,21.1-1.8c0,0.4,0,0.8,0,0.9c0.1,0.4,0.7,0,0.8-0.2c0.2-0.3,0.4-0.7,0.6-1.1
					c0.8-0.2,1.6-0.4,2.4-0.6c0.1,0,0.2-0.1,0.3-0.2c-1.1,1.5-1.6,3.5-1.8,5.5c-7.8,1.7-15.4,2.8-23.5,3.1c-1.6,0.1-3.1,0-4.7,0
					c0,0-0.1,0.1-0.1,0.1c0.5,0.5,1,1,1.5,1.6c0.8,0,1.7-0.1,2.4-0.1c0.6,0,1.2,0,1.9-0.1c0.2,1.5,0.3,3,0.5,4.6
					c0.4,0.4,0.8,0.7,1.3,1.1c-0.2-1.9-0.5-3.8-0.9-5.7c3.4-0.1,7-0.3,10.5-0.8c1.1,3.4,1.5,6.9,1.8,10.5c0.2,1.6,0.2,3.4,0.4,5.2
					c0.6,0.5,1.3,1,1.9,1.5c-0.3-2.4-0.7-4.9-0.9-7.2c-0.3-3.5-1-6.8-2.3-10.1c3.5-0.5,6.9-1.2,10.1-2.3c-0.1,1.8,0,3.7-0.1,5.2
					c-0.1,5.1-0.4,11,0.6,16.1c-1.6,0.1-3.1,0.3-4.6,0.5c0.4,0.4,0.8,0.8,1.2,1.3C78.5,55.7,79.6,55.3,80.8,54.8
					C80.8,54.8,80.8,54.8,80.8,54.8z M67.3,19.4c-0.1,0.2-0.2,0.3-0.3,0.5c0-0.1,0-0.1-0.1-0.2C67,19.6,67.1,19.5,67.3,19.4z
					 M66.9,26.9c0.6-0.8,1-1.9,1-3c0-0.3,0-0.6,0-0.9c0.2-0.2,0.6-0.2,0.9-0.1c0.6,0.2,1.2,0.6,1.6,1.1c0.4,0.5,0.9,0.9,1.2,1.5
					c0.2,0.3,0.2,0.6,0.3,0.9C70.2,26.6,68.6,26.7,66.9,26.9z M73.6,26.2c0.2-1.6-1.9-3.3-3.1-3.8c-1-0.4-1.9-0.3-2.6,0.2
					c-0.1-0.6-0.2-1.1-0.4-1.7c0.7-2.7,4.1-2.9,3.8,0.4c-0.1,0.7,1.2-0.1,1.4-0.3c0.8-1.2,1.7-0.9,2.3-0.2c-0.4,0.2-0.6,0.7-0.1,0.7
					c0.2,0,0.4,0,0.7,0c0,0.1,0.1,0.2,0.1,0.2c0.5,0.9,0.4,2,0,2.9c-0.2,0.5,0.6,0.5,0.9,0.4c0.9-0.4,1.3,0.1,1.5,0.7
					C76.4,25.8,75,26,73.6,26.2z"/>
			</g>
			<g>
				<path fill="#EB7723" d="M47.3,63.1c-0.6-0.2-3.9-0.1-3.3,1.1c0.1,0.1,0.2,0.1,0.3,0.1c5.8,0.1,5.9,10,0,10.2
					c-3.3,0.1-6.1-2-6.2-5.4c0-1.4,0.5-2.8,1.4-3.9c1-1.2,2.5-1.2,3.9-1.2c0,0,0.2-0.1,0.1-0.1c-0.9-1.3-2.8-0.8-3.9-0.1
					c-1.6,1-2.6,2.9-2.9,4.7c-1,5.1,3.9,7.8,8.4,7.1c4.2-0.6,6.2-5.1,5.3-9C49.8,65.1,48.9,63.7,47.3,63.1z"/>
				<path fill="#EB7723" d="M70.5,62.1c-0.3,0-1.9,0.8-1.1,1.3c1.1,0.6,2.3,0.8,3.4,1.6c1,0.7,1.8,1.9,2.1,3.1
					c1,3.3-2.4,4.7-5.2,4.2c-2.4-0.5-4.2-2.5-5.1-4.7c-0.4-0.9-0.6-2-0.4-2.9c0.3-1.5,1.9-1.1,3-1.2c0.2,0,0.6-0.4,0.4-0.5
					c-2.4-1.8-5,1.2-5.2,3.4c-0.3,3.4,3,6.7,6.1,7.4c3.4,0.9,8-0.9,8.6-4.6C77.6,65.7,73.9,61.7,70.5,62.1z"/>
				<path fill="#EB7723" d="M51.9,34.5c0,0,0.1,0.1,0.1,0.1c0,0,0.1-0.1,0.1-0.1C52,34.5,51.9,34.5,51.9,34.5z"/>
				<path fill="#EB7723" d="M50.6,36.3c1,0,2-0.1,2.9-0.1c-0.5-0.5-1-1-1.5-1.6C51.5,35.2,51,35.8,50.6,36.3z"/>
				<path fill="#EB7723" d="M73.5,55.2c0-0.9-0.1-1.8-0.2-2.7c-0.6-0.5-1.3-1-1.9-1.5c0.2,1.5,0.5,3,1.1,4.3
					c-0.8,0.1-1.6,0.2-2.5,0.3c-3.3,0.3-6.5,0.4-9.8,0.5c0.1-0.1,0.2-0.3,0.2-0.4c-0.2-4.7-0.3-9.4-0.8-14c-0.4-0.4-0.8-0.7-1.3-1.1
					c0.4,5.2,0.6,10.4,0.8,15.5c-0.9,0-1.8,0-2.7,0.1c-2.5,0.1-4.9,0.2-7.3,0.3c0.1-0.1,0.1-0.2,0.1-0.3c-0.8-3.7-0.9-7.4-0.9-11.1
					c0-1.4,0.3-4,0.2-6.1c-0.6,0.7-1.2,1.5-1.8,2.2c0,1.2,0.1,2.4,0.1,3.4c-0.1,4,0.2,8.1,1.1,12c-2.6,0.2-5.2,0.5-7.8,1
					c0-2.8-0.1-5.6-0.1-8.4c-0.5,0.5-0.9,1.1-1.3,1.6c0.1,2.5,0.2,4.8,0.2,7c-1.8,0.4-3.5,0.8-5.3,1.4c0,0,0-0.1,0-0.1
					c0-0.7,0.1-1.4,0.1-2.2c-0.6,0.7-1.2,1.5-1.8,2.2c0,0.2,0,0.4,0,0.7c0,0.4,0.6,0.4,1.1,0.1c0,0,0.1,0.1,0.3,0
					c8.7-2.2,17.6-2.3,26.5-2.5c5.6-0.1,12.1,0.1,17.7-1.4c-0.4-0.4-0.8-0.8-1.2-1.3C75.2,54.9,74.3,55,73.5,55.2z"/>
			</g>
			<g>
				<path fill="#EB7723" d="M34,34.1c-0.3-1.7-0.8-3.3-1.7-4.6c0,0,0,0,0,0c5.6-2.8,15.3-0.9,21.3-0.7c1.1,0,2.2,0.1,3.3,0.1
					c0.4-0.5,0.9-1,1.3-1.6c-1.2,0-2.5,0-3.7,0c0,0,0,0,0,0c0.1-7.2-0.2-14.2-1.2-21.3c1.2,0.3,2.4,0.7,3.6,1.2
					c0.9,0.4,1.6,0.7,2.5,0.6c-0.8,2.9-0.7,5.9-0.9,8.9c-0.1,1-0.1,2-0.2,3c-0.5,0.6-0.8,1.2-0.1,1.6c-0.1,2-0.1,4,0,6
					c0.5-0.6,1-1.2,1.5-1.8c0.2-2,0.2-4,0.2-6c0.4-0.2,0.8-0.3,1.3-0.3c1.2-0.2,2.3-0.1,3.1,0.7c0.4-0.5,0.8-1,1.3-1.6
					c-0.1-0.1-0.3-0.2-0.4-0.3c-0.4-3.5-0.7-7-0.8-10.4c0-0.2-0.4,0-0.4,0.2c-0.3,3.4-0.3,6.7,0.1,10c-1.4-0.2-2.8,0.2-4.1,0.8
					c0.1-3.5,0.4-7.4-0.1-10.8c0,0,0.1,0,0.1,0c0.1-0.1,0.4-0.3,0.4-0.4c0-0.1-0.1-0.2-0.1-0.3c0-0.2-0.1-0.3-0.3-0.3
					c-0.7-0.2-1.4-0.3-2.1-0.5c-0.9-1.3-0.1-2.2,2.7-2.8c0.7,0.4,1.2,0.8,1.7,1.4c0.3,0.3,1-0.2,1.1-0.5c0.3-0.6,0.5-1.3,0.8-1.9
					c2.7-1.5,4.1-0.9,4.3,1.8c0.1,0.4,0.7,0.2,0.9,0c3.9-3.2,4.1,3,3.9,4.3c0,0,0,0.1,0,0.1c0.4-0.6,0.8-1.1,1.2-1.7
					c0.3-3.6-2.4-5.2-5.1-3.7c-1.5-4.8-5-3.5-6.7,0.3c-3.1-2.3-8.2-1.2-5.6,2.5c-1.2-0.3-2.3-0.5-3.5-0.6c0-0.1,0-0.1,0-0.2
					c-1.3-1.2-5.3,0.5-6.8,0.8c-2.1,0.5-4.4,1.2-6.4,2.1c-0.1-0.1-0.1-0.2-0.2-0.3c-0.3-0.6-1.8,0.3-1.4,0.9c0.5,1,1.1,2,1.6,3
					c-0.3,0.3-0.1,0.6,0.2,0.5c0.5,1,0.9,2,1.4,3.1c-1.7-0.4-3.5-0.2-5.4,0.6c-2.4,1-4.3,3.2-5.1,5.7c-0.7,2.5,0.9,5.5,3.5,6.1
					c0.3,0.1,1.3-0.4,0.9-0.8c-1.3-1.6-2.6-2.3-2.7-4.5c-0.1-2.4,1.8-4.5,3.9-5.4C43.3,14,48.5,21.5,48,26.8c0,0.2,0.1,0.2,0.2,0.3
					c-5.3-0.3-11.8-0.7-16.2,1.7c0,0-0.1,0-0.1,0.1c-0.1-0.1-0.2-0.2-0.3-0.3c-0.2-0.2-0.6,0-0.6,0.3c0.7,5.1,1.6,9.7,1.5,15
					C32.4,49,31.8,54,31.7,59.1c0.6-0.7,1.2-1.5,1.8-2.2c0.2-4.6,0.7-9.2,0.8-13.8c0.1-2.3,0.2-5.4-0.1-8.2c2,0.7,4.2,1.1,6.5,1.3
					c-2.4,4-2.4,9.5-2.3,14.6c0.4-0.5,0.9-1.1,1.3-1.6c0-4.4,0.2-8.7,1.6-12.9c1.9,0.1,3.9,0.2,5.9,0.1c-0.6,1.3-0.7,3.1-0.7,4.8
					c0.6-0.7,1.2-1.5,1.8-2.2c-0.1-1-0.3-2-0.7-2.6c1,0,2-0.1,3-0.1c0.5-0.6,0.9-1.1,1.4-1.7c0,0-0.1-0.1-0.1-0.1
					C45.9,34.3,39.8,33.6,34,34.1z M40.5,8.3c1.7,0,3.7-0.8,5.2-1.1c1.4-0.3,2.8-0.7,4.2-1C50.7,6,51.5,6,52.3,5.8c0,0,0,0.1,0,0.1
					c0,0.6,0.1,1.1,0.1,1.7c-3.8,0-7.6,1.1-10.9,3C41.2,9.9,40.9,9.1,40.5,8.3z M42.7,15.2c-0.3-1.3-0.6-2.7-1-3.9
					c3.3-1.9,6.7-2.2,10.5-2.7c0.1,0,0.2-0.1,0.3-0.1C52.8,14.7,53,21,53,27.3c-0.7,0-1.3,0-2,0c-0.8,0-1.6-0.1-2.5-0.1
					c0.5-0.1,1.1-0.5,1.2-0.8C50.4,21.3,47.1,16.5,42.7,15.2z"/>
				<path fill="#EB7723" d="M36.1,22.1c0.6,0.1,1.2,0.1,1.9-0.1c0.7-0.3,1.3-0.9,1.8-1.4c0.2-0.2,0.3-0.5,0.1-0.7
					c-0.6-0.6-1.8-1.1-2.6-0.6c-0.1,0-0.1,0.1-0.2,0.2c0-0.4-0.7,0-0.7,0.2c-0.2,0.7-0.4,1.5-0.4,2.3C35.9,22,36,22.1,36.1,22.1z
					 M37.2,20.4c0.4,0,0.7,0.1,1,0.3c0,0.1-0.1,0.1-0.1,0.2c0,0-0.4,0.3-0.2,0.2c-0.2,0.1-0.5,0.1-0.8,0.1c0-0.3-0.1-0.6-0.1-0.8
					C37,20.4,37.1,20.4,37.2,20.4z"/>
			</g>
			<g>
				<path fill="#EB7723" d="M19.9,32.5c-6.5-0.8-13.1,0.6-19.6,0.6c-0.1,0-0.4,0.2-0.2,0.3c6.6,0.9,13.2,1,19.7-0.6
					C19.8,32.7,20.1,32.5,19.9,32.5z"/>
				<path fill="#EB7723" d="M22.6,38.2c-7.1-0.5-15,0.1-21.7,2.4c-0.4,0.2-0.8,0.9-0.1,0.8c7.1-1.1,14.5-1.3,21.6-2.8
					C22.6,38.6,23,38.2,22.6,38.2z"/>
				<path fill="#EB7723" d="M23.6,49.1c-4.3,0.3-8.5,0.3-12.8,0.2c-2.9-0.1-6.5,0.1-9,1.6c0,0-0.1,0.1,0,0.2
					c2.9,0.6,6.6-0.2,9.5-0.3c4-0.1,8.3-0.1,12.2-1.3C23.5,49.4,23.9,49,23.6,49.1z"/>
			</g>
		</g>
	</g>
</g>
</svg>
