<?xml version="1.0" encoding="utf-8"?>
<!-- Generator: Adobe Illustrator 16.0.0, SVG Export Plug-In . SVG Version: 6.00 Build 0)  -->
<!DOCTYPE svg PUBLIC "-//W3C//DTD SVG 1.1//EN" "http://www.w3.org/Graphics/SVG/1.1/DTD/svg11.dtd">
<svg version="1.1" id="Layer_1" xmlns="http://www.w3.org/2000/svg" xmlns:xlink="http://www.w3.org/1999/xlink" x="0px" y="0px"
	 width="66.4px" height="95.8px" viewBox="0 0 66.4 95.8" enable-background="new 0 0 66.4 95.8" xml:space="preserve">
<g>
	<g>
		<path fill="#CC5327" d="M43.6,6.4c0.1,0,0.2-0.1,0.2-0.1c0.1-0.1,0.3-0.4,0-0.4C37.7,7.9,31.7,8,25.3,8.5
			c-6.5,0.5-13,1.6-19.4,2.9c0,0,0,0,0,0c0-0.4-0.6-0.1-0.8,0.3c-0.2,0.2-0.3,0.5,0,0.5c-0.2,6.6,0.6,13,1.9,19.4
			c0.3-0.3,0.7-0.5,1-0.8C7,24.6,6.1,18.4,5.9,12c7.4-1.2,14.9-2.4,22.5-2.8C33.3,9,38.5,8.9,42.9,6.7c0,0.1-0.1,0.1,0,0.2
			c0.1,1,0.2,1.9,0.4,2.9c0.4-0.2,0.7-0.3,1.1-0.5C44.1,8.4,43.9,7.4,43.6,6.4C43.6,6.4,43.6,6.4,43.6,6.4z"/>
		<path fill="#CC5327" d="M3.9,26.8C2.9,21.9,0.1,10.3,4.4,6.7c13.3,0.3,26.8-3,39.9-5.2c0.1,0.2,0.2,0.4,0.3,0.4
			c2.8,1.2,3.4,3.4,3.7,5.9c0.6-0.2,1.2-0.4,1.8-0.6c-0.1-0.5-0.2-1.1-0.3-1.6c-0.6-3.5-1.7-3.9-4.6-4.9C45.4,0.3,45.4,0,45,0
			c-6.4-0.2-12.8,1.9-19,2.8c-6.8,1-14,2.1-21,2.2c-0.3,0-0.7,0.3-0.9,0.6c-3.2,1.9-4.3,4.2-4.1,8c0.3,5.9,1.7,12.4,2.9,18.3
			c0.2,0.8,0.3,1.7,0.5,2.5C3.9,34,4.5,33.6,5,33.2C4.6,31,4.3,28.9,3.9,26.8z"/>
	</g>
	<g>
		<path fill="#CC5327" d="M24.8,84.2c-0.7,0.1-4.2,0.3-5.5,1.3c-0.1,0-0.1,0-0.2,0c-2.3,0.1-4.2-0.9-5.7-2.6
			c-0.7-0.8-1.2-1.8-1.4-2.9c-0.1-0.4,0.1-1.1,0.1-1.6c0.2-0.3,0.4-0.6,0.3-0.8C10.5,67,8.8,56.3,7.1,45.7c-0.6,0-1.2,0-1.7,0
			c1.8,11,3.3,22.1,5.3,33.1c0,0.2,0.1,0.3,0.3,0.3c-0.5,1.4-0.2,3.5,0.5,4.5c1.4,2.4,3.9,3.8,6.7,3.8c0.4,0,0.9-0.4,1.2-0.8
			c1.2,0.2,5.2-0.2,9.5-0.9c-0.2-0.6-0.4-1.3-0.5-1.9C27.1,83.9,25.9,84,24.8,84.2z"/>
		<path fill="#CC5327" d="M24.7,73.7c-2.9,0.1-6.3-0.6-9.2-0.1c-2.5-9.2-3.3-18.6-4.9-28c-0.2,0-0.5,0-0.7,0
			c1.8,9.4,2.4,19,4.5,28.3c-0.1,0.1-0.2,0.3-0.1,0.3c0,0,0.1,0,0.1,0c0,0.1,0,0.2,0.1,0.3c0.1,0.3,0.4,0.2,0.7-0.1
			c3,0.9,7.3,0.4,10.4,0.2c-0.1-0.4-0.2-0.8-0.3-1.2C25.2,73.7,25,73.7,24.7,73.7z"/>
	</g>
	<g>
		<path fill="#CC5327" d="M10.5,44.4c-0.8-4.6-1.7-9.1-2.5-13.6c-0.3,0.3-0.7,0.5-1,0.8c0.7,3.8,1.6,7.6,2.5,11.4
			c0.2,0.9,0.4,1.8,0.5,2.7c0.2,0,0.5,0,0.7,0C10.6,45.2,10.6,44.8,10.5,44.4z"/>
		<path fill="#CC5327" d="M6.8,43.6C6.3,40.1,5.7,36.6,5,33.2c-0.5,0.4-1.1,0.9-1.6,1.3c0.7,3.7,1.4,7.5,2,11.2c0.6,0,1.2,0,1.7,0
			C7,45,6.9,44.3,6.8,43.6z"/>
		<path fill="#CC5327" d="M53.2,34.6c-0.8-5.9-2-11.7-2.5-17.7c-0.2-3.2-0.2-6.5-0.6-9.7c-0.6,0.2-1.2,0.4-1.8,0.6
			c0.1,0.6,0.1,1.3,0.2,2c0.4,4,0.4,8,0.9,11.9c0.7,4.6,1.5,9.2,2.2,13.8c0.4,2.9,0.4,5.9,0.8,8.7c-0.8-0.3-1.7-0.2-2.5,0
			c-0.2-0.7-0.7-1.2-1.4-1.6c-2.1-11.1-1.8-22.4-4.3-33.4c-0.4,0.1-0.7,0.3-1.1,0.5c0.9,6.2,2.1,12.3,2.7,18.6
			c0.5,4.6,0.3,9.7,1.9,14c-0.5-0.2-0.9-0.3-1.4-0.3c-1.4,0-2.9,0.8-4.2,1.4c-4.8-4.9,0.2-14-4.1-19.3c0.1-0.1,0.1-0.2,0.1-0.3
			c-2.4-3.6-4.8,5.8-5,6.6c-0.9,4.9-0.8,9.9-1,14.8c0.2,0,0.3,0,0.5,0c0.4-7.9,0.5-20.4,4.7-21c2.3,3.3,1.6,8.5,1.7,12.3
			c0.1,2.5,0.1,7,3,7.9c0.2,0.1,0.8-0.4,0.6-0.6c0,0,0-0.1-0.1-0.1c0.9-0.3,1.9-0.5,2.8-0.7c1.8-0.4,2.7,1.2,4.2,1.6l0,0
			c0,0,0.1,0,0.1,0c1.1-0.1,1.8,0.2,2.3,0.7c0.8,0,1.7,0,2.5,0C53.5,42,53.7,38.2,53.2,34.6z"/>
	</g>
	<g>
		<path fill="#CC5327" d="M38.4,73c-3.1-4.6-7.4-8.6-11-12.9c-2.5-2.9-6.8-4.2-9.9-6.3c2.1-3.4,8.6,0.1,11.6,0.5
			c2.2,0.3,4.2-1.6,3.1-3.9c0.2-1.2,0.4-2.9,0.5-5c-0.2,0-0.3,0-0.5,0c-0.1,1.7-0.2,3.3-0.3,5c-0.1,0.1-0.2,0.2-0.2,0.3
			c-0.1,1,0.2,2.6-1.3,2.7c-0.7,0-1.5-0.2-2.2-0.4c-1.7-0.4-3.4-1.1-5.1-1.4c-2.5-0.6-5-0.1-6.3,2.3c-0.2,0.4,0,0.4,0.3,0.3
			c1.3,2.2,4.2,3,6.4,4.2c4.5,2.4,7.9,7.9,11.2,11.7c0.4,0.5,0.8,1,1.2,1.4c-3.5,1.1-6.6,1.9-10.3,2.1c0.1,0.4,0.2,0.8,0.3,1.2
			c0.2,0,0.4,0,0.6,0c3.2-0.2,7-0.6,9.5-2.8c0,0,0.1-0.1,0.1-0.1c2.5,3.2,4.2,6.5,5.5,9.9c-3.2,0.2-6.3,1.3-9.5,1.6
			c-1.2,0.1-2.5,0.2-3.7,0.3c0.2,0.6,0.4,1.3,0.5,1.9c5.6-0.8,11.7-2,13.2-2.3c1.1,3.4,2,7,2.8,10.7c0,0,0.1,0,0.1,0
			C47,87.3,42.1,78.6,38.4,73z"/>
		<path fill="#CC5327" d="M57.3,72.5c-0.7-7.4,0.7-14.9,2.1-22.1c0,0,0.1-0.1,0.1-0.1c0.3-1,0.2-2.1-0.6-2.8
			c-0.7-0.5-1.8-0.3-2.6-0.3c-0.7,0-1.1-0.3-1.5-0.7c0-0.1,0.1-0.3,0-0.4c-0.1-0.2-0.1-0.4-0.2-0.5c-0.8,0-1.7,0-2.5,0
			c0.3,0.3,0.6,0.7,0.9,1c0.1,0.2,0.1,0.4,0.2,0.6c0.1,0.3,0.3,0.3,0.6,0.2c0.3,0.2,0.6,0.5,0.9,0.6c0.7,0.3,1.5,0.2,2.2,0.2
			c1.4,0,1.4,0.9,1.8,1.9c-0.1,0.1-0.3,0.3-0.3,0.4c-4,14.8-5,33.5,6.9,45.2c0.4,0.4,1.4-0.5,1.1-1C61.6,87.5,58.2,81.2,57.3,72.5z"
			/>
		<path fill="#CC5327" d="M36.1,76.8c-0.8-1.3-3.1-1.9-4.4-1.2c-0.2,0.1-0.6,0.7-0.3,0.9c0,0,0,0,0,0c-1,0.6-1.1,2.4-0.7,3.3
			c0.7,1.4,2.3,1.8,3.6,1C35.8,80,37.1,78.3,36.1,76.8z M34.3,79.7c-0.8,0.4-1.7-0.1-2.3-0.7c-0.3-0.3-0.4-0.8-0.4-1.2
			c0-0.5,0.3-0.8,0.5-1.2c0.3,0,0.5,0,0.8,0c0.5,0.1,1,0.3,1.4,0.6C35.3,77.9,35.4,79.1,34.3,79.7z"/>
	</g>
</g>
<g>
	<g>
	</g>
</g>
</svg>
