<?xml version="1.0" encoding="utf-8"?>
<!-- Generator: Adobe Illustrator 16.0.0, SVG Export Plug-In . SVG Version: 6.00 Build 0)  -->
<!DOCTYPE svg PUBLIC "-//W3C//DTD SVG 1.1//EN" "http://www.w3.org/Graphics/SVG/1.1/DTD/svg11.dtd">
<svg version="1.1" id="Layer_1" xmlns="http://www.w3.org/2000/svg" xmlns:xlink="http://www.w3.org/1999/xlink" x="0px" y="0px"
	 width="107.2px" height="74.9px" viewBox="0 0 107.2 74.9" enable-background="new 0 0 107.2 74.9" xml:space="preserve">
<g>
	<g>
		<g>
			<path fill="#F6971D" d="M81.9,0.8c-0.1-0.1-0.2-0.1-0.3-0.1c0.1-0.4,0.1-0.8-0.5-0.7c-5.8,1.9-9.7,3.5-16,2.7
				C60.4,2.1,56.3,1.8,51.7,3c-1.6,0.4-6.4,3.3-8.1,5.9c-4.8-3-10.8-3.9-16.3-2.9c-6.7,1.2-9.9,7.8-16.7,9.2c0,0,0,0,0,0
				c-0.1,0-0.2,0-0.3,0.1c-0.3,0-0.9,0.7-0.4,0.8c-0.1,0-0.2,0.1-0.3,0.1c-0.1,0.8-0.1,1.5-0.2,2.2c-2.4,1-4.9,2.3-7.2,1.9
				c-0.2-0.2-0.3-0.4-0.5-0.5c-0.5-0.6-1.8,0.6-1.6,1.3c2.3,6.9,6,13.4,9.3,20c1.3-0.5,2.6-1,3.9-1.5c-2.7-6-5.7-12.2-9.7-17.3
				c1.8-0.1,3.5-0.8,5.3-1.4c-0.2,1-0.5,2-0.9,3c-0.2,0.6-0.1,0.8,0.3,0.8c0,0.1-0.1,0.2,0,0.3c1.6,5,3.7,9.6,6,14.2
				c0.7-0.3,1.5-0.6,2.2-0.9c-2.5-4.6-5-9.3-7-14.1c0.3-0.2,0.6-0.4,0.7-0.6c0.5-0.8,0.9-1.7,1.1-2.6c1.7,4.3,5.2,9.1,6.5,11.5
				c0.8,1.5,1.6,3,2.4,4.4c0.7-0.3,1.4-0.5,2.1-0.8c-0.6-1.1-1.2-2.3-1.8-3.4c-2.2-4.1-4.3-8.2-6.5-12.3c-0.3-0.5-1.4-2.1-2.2-3.4
				c0-0.3,0-0.5,0-0.8c2.9,0,5.1-1.2,7.5-3.1c3.8-3,6.8-4.9,12-5c4.6-0.1,8.7,2.9,12.9,4.2c0.3,4.8,4.1,9.9,6.5,14.2
				c1-0.3,2.1-0.7,3.1-1c-1.5-4.1-4.2-10.5-7.3-13.9c0.1-0.3,0.2-0.5,0-0.7c2.1-7.8,12.5-5.9,18.9-5.1c5.8,0.7,11-0.5,15.5-4.1
				c2.1,4.8,4.2,9.7,6.4,14.6c1.1-0.3,2.2-0.6,3.3-0.8C87.9,10.4,85.2,5.4,81.9,0.8z"/>
			<path fill="#EB7723" d="M70,57.2c-0.1-0.1-0.2-0.3-0.4-0.4c0,0-0.1,0-0.1-0.1c-0.4-0.2-1.1,0.1-1.4,0.3C67,58,66.8,58.9,66.1,60
				c-0.8,1.1-1.9,1.9-3,2.5c-1.1,0.6-2.4,1.1-3.7,0.7c-0.8-0.2-1.3-0.8-1.6-1.5c0.2-0.1,0.4-0.2,0.5-0.2c0.6-0.3,2.3-2.3,0.7-2.4
				c-6.8-0.6-16,3.4-22.4,5.5c-3.5,1.2-8.6,2.8-12,5.6c-2.3-8.7-5.4-17-8.9-25.3c-0.8-1.7-1.5-3.5-2.3-5.3c-1.3,0.5-2.6,1-3.9,1.5
				c1,2,2,4,2.9,6.1c3.9,8.7,7.2,17.8,9.4,27.1c0.3,1.4,2.7-0.1,3.3-1.5c5.1-2.9,10.1-5,16-6.6c4.5-1.2,9.6-1.8,14.2-3.4
				c0.3,2.8,3,4,6.1,3.3c3.7-0.9,7.1-4,8.6-7.5c3-0.5,6-1.1,9-1.8c0-1,0-2.1,0-3.1C75.7,54.6,72.6,55.6,70,57.2z"/>
			<path fill="#B3A633" d="M107.2,47.3c-1.3-1.5-2.6-3.1-3.9-4.6c-0.6-0.7-1.8-1.9-2.8-2.1c0-0.2,0-0.3,0.1-0.5
				c0.7,0.2,2.1-1.2,1.6-2c-4.4-7.3-7.9-15.1-11.7-22.8c-1.1,0.3-2.2,0.6-3.3,0.8c3.3,7.2,6.9,14.3,11.2,20.8
				c-4.3,5-13.9,3.7-19.8,4.9c-0.1,0-0.2,0.1-0.3,0.1c0.1,0.8,0.2,1.6,0.2,2.4c3.7-0.9,7.6-0.7,11.4-1.2c3.3-0.4,6.8-1.4,9.1-3.6
				c-0.5,1.2-0.8,2.6-0.9,4c0,0.5,0,1,0.1,1.6c-6.3,2.3-13.1,2.8-19.5,4.4c0,0.7,0,1.4,0,2.1c7.2-1.2,14.6-1.5,21.2-4.7
				c0.3-0.1,0.6-0.4,0.8-0.7c-0.3-0.2-0.6-0.4-0.8-0.8c0.2-0.1,0.4-0.2,0.6-0.3c0,0.1,0.1,0.1,0.1,0.2c0.6,1,1.3,1.9,1.9,2.9
				c-6,1.6-11.9,2.9-18,4c-1.9,0.3-3.8,0.7-5.8,1.2c0,1,0,2.1,0,3.1c2.3-0.5,4.7-1,7-1.4c6.5-1.1,13.2-2,19.3-4.7c0,0,0,0,0.1,0
				C106.4,50.3,108.1,48.4,107.2,47.3z"/>
			<path fill="#EB7723" d="M70.1,52.9c-0.9-0.6-1.7-1.3-2.5-1.9c-0.3-0.3-0.6-0.5-0.9-0.7c3.5-2.3,6.9-4.3,11.1-5.5
				c0.2-0.1,0.5-0.1,0.7-0.2c-0.1-0.8-0.1-1.6-0.2-2.4c-4.9,1.1-9.4,4.2-13,7.6c0,0-0.1,0-0.1,0c0,0,0,0-0.1,0c0,0,0,0,0,0
				c-0.5-0.2-1-0.3-1.4-0.4c0-0.1,0-0.1,0-0.2c-4-7.2-6.7-14.8-9.5-22.5c-0.1-0.3-0.2-0.7-0.4-1c-1,0.3-2.1,0.7-3.1,1
				c0.3,0.6,0.7,1.2,0.9,1.8c3.2,6.7,5.6,13.7,9.3,20.2c-4.9-1.2-9.9-1.7-14.9-0.9c-5.3,0.8-9.3,4.7-13.8,7.4
				c-3.1-6.3-6.5-12.5-9.9-18.7c-0.7,0.3-1.4,0.5-2.1,0.8c3.7,6.8,7.5,13.5,10.8,20.4c0.3,0.7,1.4,0,1.7-0.7c1.2-0.6,2.4-1.3,3.6-2
				c4.6-2.8,8-4.9,13.7-4.8c3.4,0,6.9,1.1,10.3,1.9c-1.3,0.8-2.3,1.8-2.9,3.2c-10.2,1.4-19.6,5-28.9,9.3c0,0,0-0.1,0-0.1
				C25.6,55,21,46.7,16.5,38.4c-0.7,0.3-1.5,0.6-2.2,0.9c4.4,8.6,9.3,16.9,12.2,26.2c0.1,0.3,0.3,0.4,0.6,0.3c0,0.1,0,0.3,0,0.4
				c9.7-3.8,19.4-7.7,29.8-8.9c0.2,0.2,0.5,0.3,0.9,0.2c0.8-0.2,1.8-1,2-1.9c0.4-1.6,1.4-2.4,2.8-3.1c0.3-0.2,0.6-0.4,0.9-0.7
				c0,0.3,0.2,0.5,0.6,0.2c0.2-0.1,0.4-0.3,0.6-0.4c0.2,0.4,0.6,0.9,0.9,1.2c0.8,0.8,1.6,1.6,2.5,2.3c0.3-0.2,0.6-0.5,0.9-0.7
				c3.1-1.3,6.4-2,9.7-2.5c0-0.7,0-1.4,0-2.1C75.7,50.5,72.8,51.5,70.1,52.9z M63.7,51.2C63.7,51.3,63.7,51.3,63.7,51.2
				c0-0.1,0-0.1,0-0.2c0.1,0,0.1,0,0.2,0C63.9,51.1,63.8,51.2,63.7,51.2z"/>
		</g>
	</g>
</g>
</svg>
