<?xml version="1.0" encoding="utf-8"?>
<!-- Generator: Adobe Illustrator 16.0.0, SVG Export Plug-In . SVG Version: 6.00 Build 0)  -->
<!DOCTYPE svg PUBLIC "-//W3C//DTD SVG 1.1//EN" "http://www.w3.org/Graphics/SVG/1.1/DTD/svg11.dtd">
<svg version="1.1" id="Layer_1" xmlns="http://www.w3.org/2000/svg" xmlns:xlink="http://www.w3.org/1999/xlink" x="0px" y="0px"
	 width="130.9px" height="93.6px" viewBox="0 0 130.9 93.6" enable-background="new 0 0 130.9 93.6" xml:space="preserve">
<g>
	<g>
		<g>
			<g>
				<path fill="#CC5327" d="M20.3,85.7C6.6,77.4,23.4,67.5,30.9,65c3-1,6.1-1.8,9.2-2.1c0.3-0.9,0.6-1.7,0.9-2.6
					c-0.8,0-1.6,0.1-2.4,0.2c-7.9,0.8-25.2,5.4-25.2,15.8c0.1,9,8.5,13.3,16.2,15.6c0.2-0.6,0.5-1.3,0.7-1.9
					C26.7,89,23.2,87.5,20.3,85.7z"/>
				<path fill="#CC5327" d="M45,48.9c0.3-0.9,0.6-1.8,0.9-2.6c-0.5,0-1,0-1.6,0c-13.7,0-27.4,1-41.1,1.6c-0.5-0.8-0.9-1.2-0.7-2.2
					c0.2-1.1,1-2.1,1.6-3.1c12.2,1.1,24.5,1,36.7,1c2,0,4,0,6,0c0.3-0.8,0.5-1.5,0.7-2.3c-1.4,0-2.9,0.1-4.3,0.1
					C30.1,41.5,17,40.8,3.9,41.2c-0.4-0.6-1-1-1.5-0.7C0.9,41.2,0,43,0,44.8c0,1.1,0.4,2.5,1.2,3.5c0,0.4,0.5,1.1,0.9,1.2
					c13.4,1.2,26.9,0.1,40.3-0.5C43.2,48.9,44.1,48.9,45,48.9z"/>
				<path fill="#CC5327" d="M53.1,23.5C38,23.3,23.8,19.3,13.4,5.9c10.6,0.7,21-0.7,31.5-1.3c4.5-0.2,9-0.2,13.5-0.1
					c0.2-0.7,0.4-1.4,0.5-2.1c-4-0.1-8-0.2-12-0.2C35.3,2.2,23.8,4.1,12.1,4.3C12.1,4.2,12,4.1,11.9,4c-0.3-0.4-0.8-0.3-0.5,0.2
					c0,0,0,0.1,0.1,0.1c-0.1,0-0.2,0-0.3,0c-0.7,0,0.1,1.4,0.6,1.5c0.2,0,0.4,0,0.6,0c9.2,14.8,24.2,19.4,40.1,19.8
					C52.7,25,52.9,24.2,53.1,23.5z"/>
			</g>
			<g>
				<path fill="#FFD474" d="M93.1,82.2c-12-3.7-22.1-4.7-34.3-1.8c-0.4,0.1-0.4,0.4-0.3,0.8c-4.5,4.7-8.2,8.7-15,9.9
					c-4.1,0.7-8.7,0.2-13.1-1c-0.2,0.6-0.5,1.3-0.7,1.9c0.5,0.1,1,0.3,1.4,0.4c11.6,3.2,22.5,0.9,28.2-10c0.2,0.1,0.4,0.2,0.6,0.1
					c9.6-2.2,18.2-2.2,27.7,0.2c3.1,0.8,6.3,2,9.4,3.2c-0.3-0.9-0.6-1.7-0.9-2.6C95,82.8,94,82.5,93.1,82.2z"/>
				<path fill="#FFD474" d="M61.4,73.6C57.7,64,50.7,60,41,60.4c-0.3,0.9-0.6,1.7-0.9,2.6c8.1-0.9,16,1.3,19.6,10.7
					c0.3,0.9,2.1,1.8,1.9,0.7c8,2.3,16.8,1.4,25,0.6c2-0.2,4.1-0.6,6.1-1c-0.3-0.9-0.6-1.8-1-2.8C81.8,72.8,71.8,74.3,61.4,73.6z"/>
				<path fill="#FFD474" d="M45.9,46.2c-0.3,0.9-0.6,1.8-0.9,2.6c12.8-0.3,25.7,0.6,38.5-0.4c-0.3-0.9-0.7-1.7-1-2.6
					C70.3,46.8,58.1,46.3,45.9,46.2z"/>
				<path fill="#FFD474" d="M47.5,41.4c-0.2,0.8-0.5,1.5-0.7,2.3c11.5,0.1,23.2,0.1,34.6-0.7c-0.3-0.8-0.6-1.5-0.9-2.3
					C69.5,40.6,58.5,41.2,47.5,41.4z"/>
				<path fill="#FFD474" d="M53.1,23.5c-0.2,0.7-0.5,1.5-0.7,2.3c7.2,0.2,14.6-0.5,21.8-1.5c-0.3-0.8-0.6-1.6-0.9-2.4
					C66.6,22.9,59.8,23.5,53.1,23.5z"/>
				<path fill="#FFD474" d="M58.9,2.5c-0.2,0.7-0.4,1.4-0.5,2.1c2.7,0.1,5.5,0.1,8.2,0.1c-0.3-0.7-0.6-1.5-0.9-2.2
					C63.4,2.5,61.1,2.5,58.9,2.5z"/>
			</g>
			<g>
				<path fill="#B3A633" d="M91.8,71.1c0.3,0.9,0.6,1.8,1,2.8c7.8-1.5,15.6-3.6,23.4-2.5c13.2,1.9,6.6,11.2,3.1,14.2
					c-2.3,2-5.6,2.4-8.5,2.3c-4.7-0.2-10-2.8-14.8-4.6c0.3,0.9,0.6,1.7,0.9,2.6c5.5,2.1,11,4.4,16.6,4.7c7.7,0.4,13.1-6.9,11-13.9
					c-2.7-9-14-8.4-21.2-7.3C99.5,69.8,95.7,70.5,91.8,71.1z"/>
				<path fill="#B3A633" d="M83.1,40.5c-0.9,0-1.7,0-2.6,0c0.3,0.8,0.6,1.5,0.9,2.3c1.2-0.1,2.3-0.2,3.4-0.3c0-0.5,0.1-0.9,0.2-1.4
					c0,0,0.1,0,0.1,0c-0.7-16.8,21.6-21.3,33.6-13c11.1,7.6,6.3,23-2.1,30.4c-8.1,7.1-30,2.4-30.8-10.3c0,0,0.1,0,0.1,0
					c-0.4-0.8-0.7-1.6-0.9-2.6c-0.1,0-0.2-0.1-0.3-0.1c-0.7,0.1-1.5,0.1-2.2,0.2c0.3,0.9,0.7,1.7,1,2.6c0.4,0,0.8,0,1.2-0.1
					c0.2,10,15.1,16,23.4,16.2c14,0.3,21.8-17.8,17.9-29.3C119,14.7,81.7,18,83.1,40.5z"/>
				<path fill="#B3A633" d="M82.4,3.2c-0.2-0.7-0.9-1.5-1.5-1.4c-5.1,0.6-10.1,0.8-15.2,0.8c0.3,0.7,0.6,1.5,0.9,2.2
					c4.5,0,9,0,13.5-0.4c0.4,3.9-0.1,7.9,0.4,11.9c0.1,1.1,0.3,3,0.9,4.5c-2.6,0.4-5.3,0.9-8,1.2c0.3,0.8,0.6,1.6,0.9,2.4
					c2.9-0.4,5.7-0.8,8.5-1.3c0.2,0,0.3-0.2,0.4-0.3c0,0,0.1,0,0.1-0.1c0.4-0.5,0.1-1-0.1-1.5c-0.6-1.6-0.6-3.4-0.6-5.1
					c4,0.2,8.2-0.6,12.1-1c6.5-0.8,13-1.6,18.9,2.1c1.8,1.2,3.7,3.1,5.9,3.7c7.2,2,12.6-4.6,11.1-10.8c0.3,0,0.5-0.3,0.4-1
					c-0.7-3.6-4.2-6.4-7.2-8.2c-0.1-0.1-0.2-0.1-0.3-0.1c-0.3-0.4-0.7-0.7-1.1-0.6C109,2.3,95.8,2.2,82.4,3.2z M123.3,2.8
					c0.9,0.8,1.7,1.8,2.6,2.6c0.9,0.8,1.4,1.7,2.1,2.7c0,7.3-3.3,14.3-12.4,8.2c-2.9-2-5.2-3.4-8.6-4.3c-4.2-1.1-9.4,0-13.6,0.4
					c-3.5,0.4-7.2,0.6-10.8,1c0.1-2.7,0.1-5.5-0.2-8.2c0-0.3-0.2-0.6-0.4-0.9c13.4,2.1,27.9,0.2,41.1-2.1
					C123.1,2.5,123.2,2.7,123.3,2.8z"/>
				<path fill="#B3A633" d="M117.2,11c0.1,0.4,0.4,0.8,0.8,1.1c0.2,0.6,0.7,1.1,1.3,1.3c0.7,0.2,1.4-0.1,2.1-0.4
					c0.6-0.3,1.2-0.6,1.8-1c0.9-0.7,0-2-0.5-2.7c-1-1.3-2.7-2.9-4.4-2.8C116.1,6.6,116.8,9.8,117.2,11z M121.1,10.1
					C121.1,10.1,121.1,10.2,121.1,10.1c-0.4,0.3-0.7,0.6-1.1,0.9c-0.2,0.2-0.5,0.3-0.8,0.4c0,0,0,0,0,0c-0.1-0.2-0.1-0.4-0.2-0.6
					c0,0,0,0,0,0c0,0,0-0.1-0.1-0.2c-0.1-0.4-0.2-0.8,0-1.1c0.1-0.4,0.4-0.4,0.7-0.4C120.2,9.2,120.7,9.7,121.1,10.1z"/>
				<path fill="#B3A633" d="M101,42.3c-0.1,0.6,0.7,1.5,1.2,1.7c0.7,0.6,1.7,1.1,2,1.2c1.9,0.5,3.8-0.9,3.7-2.9
					c0-1.8-1.7-3.2-3.4-3.2C102.7,39.1,101.4,40.6,101,42.3z M106.1,41.3c0,0,0.1,0,0.1,0.1c0,0,0,0,0,0c0.1,1.2-1.2,2.1-2.3,2
					c-0.3,0-0.6-0.2-0.9-0.4c0.3-0.8,1-1.5,1.9-1.7C105.3,41.3,105.7,41.2,106.1,41.3z"/>
				<path fill="#B3A633" d="M91.3,48.2c-0.2,0.6,1.1,2,1.4,1.2c0-0.1,0.1-0.2,0.1-0.3c0,0.3,0.2,0.7,0.4,0.8
					c0.9,0.6,2.7,1.7,3.7,0.6c0.8-0.8,0.4-2.2,0-3.1c-0.5-1.1-1.5-2.3-2.7-2.4C92.4,44.8,91.7,46.9,91.3,48.2z M95.7,47.6
					c0.2,0.4,0.4,1.1,0.1,1.6c-0.5,0.8-2.1-0.1-2.6-0.4c-0.1-0.1-0.2-0.1-0.3-0.1c0.4-0.8,0.9-1.6,1.7-1.8
					C95.3,46.8,95.5,47.2,95.7,47.6z"/>
				<path fill="#B3A633" d="M91.7,37.2c-0.1,0.4-0.1,0.8-0.2,1.1c-0.1,0.4,0.4,1.1,0.9,1.4c0,0.2,0.1,0.4,0.2,0.6
					c0.6,0.9,2.4,3.2,3.6,1.7c0.8-1,0.5-2.9,0.3-4c-0.3-1.5-0.8-3.4-2.2-4.2C92.6,33,92,36.2,91.7,37.2z M94.5,36.1
					c0,0,0.1,0.2,0.1,0.3c0.1,0.3,0.2,0.6,0.3,1c0.2,0.8,0.4,2.3,0.1,3.1c-0.1,0.4-0.3,0.5-0.5,0.4c-0.1,0-0.2-0.1-0.4-0.3
					c-0.2-0.2-0.5-0.5-0.8-0.8c-0.1-0.1-0.1-0.1-0.2-0.2c0,0,0,0,0,0c0.2-1,0.4-2,0.8-2.9c0.1-0.3,0.2-0.5,0.4-0.7c0,0,0,0,0,0
					C94.4,36,94.5,36.1,94.5,36.1z"/>
				<path fill="#B3A633" d="M98,31.2c-0.1,0.7,1.4,2.2,1.6,1.1c0,0,0-0.1,0-0.1c0.1,0.3,0.3,0.6,0.4,0.7c0.5,0.8,1.5,1.2,2.4,1.4
					c2.1,0.4,3.8-1.2,3.7-3.3c-0.1-2.3-1.3-4.6-3.9-4.4C100.1,26.8,98.3,29.2,98,31.2z M104.6,30c0.1,1.4-0.6,2.5-2,2.7
					c-1.2,0.2-1.9-0.5-2.7-1.3c0.4-1,1.2-1.7,2.2-2.3c0.5-0.3,1.1-0.5,1.7-0.5C104.6,28.6,104.6,29.4,104.6,30z"/>
				<path fill="#B3A633" d="M110,33.9c0,0.5,0.3,1,0.7,1.3c0.3,0.2,0.9,0.3,0.9-0.2c0-0.3,0.1-0.7,0.1-1c0.2,1.2,1.7,2.2,2.9,2.3
					c1.6,0.1,2.5-1.3,2.1-2.8c-0.5-1.7-1.6-4.5-3.8-4.3C110.9,29.4,110.1,32.4,110,33.9z M115,32.8c0.5,0.8,0.5,1.8-0.6,2.1
					c-1.1,0.3-1.9-0.7-2.5-1.4c0,0,0,0-0.1,0c0.2-0.7,0.6-1.3,1.1-1.8C114.1,30.6,114.5,31.9,115,32.8z"/>
				<path fill="#B3A633" d="M100.4,53.9c0.1,0.3,0.5,0.7,0.9,0.7c0.1,0.3,0.1,0.6,0.3,0.8c0.5,0.7,1.3,1,2.1,1.1
					c0.1,0,0.3,0,0.4-0.2c0.9-1.8,1-4.4-1.1-5.5C101.1,50,99.7,52.3,100.4,53.9z M103.1,52.8c0.1,0.7,0,1.4-0.2,2.1
					c-0.2,0-0.3,0-0.5-0.1c-0.1,0-0.1,0-0.1,0c0,0,0,0,0-0.1c-0.1-0.3-0.2-0.6-0.3-0.9c0-0.1-0.1-0.1-0.1-0.2c0.2-0.6,0.3-1.2,1-1.1
					C103.1,52.6,103,52.6,103.1,52.8z"/>
				<path fill="#B3A633" d="M108.9,52.3c-0.1,0.7,1.2,2,1.6,1.5c0.9,0.7,2.3,1.5,3.1,0.5c0.7-0.8,0.3-2.4-0.1-3.3
					c-0.4-1-1.4-2.5-2.7-2.5C109.3,48.6,109,51.3,108.9,52.3z M111.7,50.6c0,0.1,0.1,0.1,0.1,0.2c-0.2-0.3,0.1,0.2,0.2,0.4
					c-0.1-0.2,0.1,0.3,0.1,0.3c0.1,0.2,0.1,0.4,0.1,0.5c0.1,0.4,0.1,0.6,0,0.8c-0.2,0.5-1,0.2-1.5-0.1c0.1-0.4,0.2-0.9,0.4-1.3
					c0.1-0.3,0.4-0.7,0.5-0.7C111.7,50.6,111.7,50.6,111.7,50.6C111.7,50.6,111.7,50.6,111.7,50.6z"/>
				<path fill="#B3A633" d="M115.4,45.2c0,0.5,0.2,1,0.7,1.3c0.1,0.1,0.2,0.1,0.4,0.1c0.4,1.4,1.2,2.4,3,2.4c0.6,0,1.3,0,1.6-0.5
					c0.2-0.5,0.4-1.1,0.5-1.7c0.2-1,0.1-2-0.2-2.9c-0.5-1.5-1.9-3.2-3.6-3C115.7,41,115.4,43.8,115.4,45.2z M119,43
					c0.3,0.1,0.3,0.1,0.4,0.5c0.2,0.3,0.2,0.9,0.2,1.3c0,0.3-0.1,2-0.5,2.1c-0.3,0.1-0.7,0.1-1.1,0.1c-0.1,0-0.2,0-0.2,0
					c-0.3-0.6-0.5-1.3-0.7-1.9c0,0,0-0.1-0.1-0.1c0.2-0.8,0.5-1.6,1.2-1.9C118.5,42.9,118.9,42.9,119,43z"/>
			</g>
		</g>
	</g>
</g>
</svg>
