<?xml version="1.0" encoding="utf-8"?>
<!-- Generator: Adobe Illustrator 16.0.0, SVG Export Plug-In . SVG Version: 6.00 Build 0)  -->
<!DOCTYPE svg PUBLIC "-//W3C//DTD SVG 1.1//EN" "http://www.w3.org/Graphics/SVG/1.1/DTD/svg11.dtd">
<svg version="1.1" id="Layer_1" xmlns="http://www.w3.org/2000/svg" xmlns:xlink="http://www.w3.org/1999/xlink" x="0px" y="0px"
	 width="157px" height="135.7px" viewBox="0 0 157 135.7" enable-background="new 0 0 157 135.7" xml:space="preserve">
<g>
	<g>
		<g>
			<g>
				<path fill="#CC5327" d="M46.5,22.3c0,0.1,0.2-0.1,0.2-0.1c-1.8-4.3-5.7-4.7-9.7-3.1c-1.1,0.4-2,1-2.8,1.8
					c0.1,0.6,0.2,1.1,0.4,1.7C37.7,19,43,18.1,46.5,22.3z"/>
				<path fill="#B3A633" d="M32.4,39.6c-1.5-3.8-1.4-8.2-0.5-12.1c0.4-2,1.4-3.7,2.6-5c-0.1-0.6-0.2-1.1-0.4-1.7
					c-1.7,1.6-2.9,3.8-3.7,6c-0.7-1.8-3.2-3.7-4.2-4.7c-2.2-2-5.7-3.8-8.7-3.5c-0.2,0-0.7,0.5-0.3,0.6c3.5,0.4,5.8,4.2,8,6.6
					c0.8,0.9,3,4.5,4.6,3.5c0,0.1,0,0.2-0.1,0.4c-0.3,2.2-0.4,4.4-0.2,6.5c-0.7,0-1.5,0-2.3,0c-3.1-3.9-8.7-5.4-11.5-10
					c-1.8-3-5.1-7.7-5.4-11.4c3.8-1.7,8-1.5,12-0.7c4,0.8,6.5,3.3,9.8,5.2c0.5,0.3,1.4-0.6,1.2-1.1c-1.6-3.7-7.3-5.6-11-6.2
					c-4.5-0.7-8.8-0.3-12.7,2.1c-0.1,0-0.1,0.1-0.2,0.2c-0.2,0.2-0.4,0.4-0.4,0.6c-0.4,4.1,2.6,8.6,4.6,12c0.5,0.8,1,1.6,1.7,2.5
					C8.1,29,1.9,39.2,0.2,44.5c-0.1,0.1-0.2,0.2-0.1,0.3c0,0,0,0,0,0c0,0.1,0,0.1-0.1,0.2c-0.1,0.5,0.3,0.4,0.7,0.2
					c9.1,6.4,21.4,11,31.3,3.5c0.1-0.1,0.5-0.6,0.1-0.6c-2.6,0.1-2.2,0.3-5.3,1.3c-4.2,1.4-8.7,1.5-13,0.3c-4.4-1.2-8-4.5-12.5-5.3
					C4,38.9,9.1,30.5,17.1,31.5c0.1,0,0.1,0,0.2,0c2,2,4.4,3.8,6.8,5c-4.5,0.6-9.2,2.1-11.6,5.4c-0.1,0.2-0.1,0.4,0.2,0.3
					c3.1-1.3,5.7-2.4,9-2.8c2.7-0.3,5.9,0.5,8.3-0.7c0,0,0,0,0,0c0.8,3.5,2.3,6.7,4.9,9.6c2.5,2.8,4.7,3.5,7.1,3.4
					c-0.2-0.5-0.3-1.1-0.5-1.6C37.2,49.3,33.6,42.7,32.4,39.6z"/>
				<path fill="#CC5327" d="M63.6,31c-0.7-0.9-2.2-1-3.3-1.1c-1.3-0.1-2.4,0.3-3.4,1.1c-0.2,0.1-0.4,0.4-0.4,0.7
					c-0.3,0.3-0.6,0.6-0.8,1c-0.2,0.4-0.4,0.8-0.5,1.3c-4.9-0.4-6.8,5.8-7.1,9.9c-0.1,1.6,0.1,3.1,0.5,4.4c-1.6,0.4-3.1,1.1-4.8,1.7
					c-0.8,0.3-1.6,0.3-2.3,0.2c0.2,0.5,0.3,1.1,0.5,1.6c2.2-0.1,4.6-1,7.3-1.8c0,0,0,0,0,0c2.3,4.7,7.6,7.3,13.4,7
					c6.8-0.3,13.2-5.7,13.7-12.6C76.9,38.1,70.2,30.2,63.6,31z M56.6,33c0.1-0.3,0.3-0.6,0.5-0.9c0.5,0.1,1.1,0,1.6-0.1
					c0.6-0.1,1.3-0.2,1.9-0.2c0.6,0,2,0.1,1.9,1c0,0.6-0.8,1.1-1.2,1.4c-0.6,0.5-1.2,0.9-1.9,1.3c-0.6,0.4-1.5,0.7-2.2,0.5
					C56,35.7,56.3,34,56.6,33z M68.1,53.9c-5.8,2.9-14.6,0.6-17.2-5.6c-1.7-4.1-1.1-13,4.3-13.6c-0.1,0.9,0.1,1.7,0.8,2.2
					c2,1.6,5.3-1.3,6.5-2.6c0.4-0.4,0.9-0.9,1.2-1.6c1,0.3,2.1,0.5,3.1,0.9c2.4,1,4.3,2.8,5.8,4.9C76.6,44.3,74,51,68.1,53.9z"/>
				<path fill="#F6971D" d="M73.3,2.5c0-0.1,0-0.2-0.1-0.3c-1.2-0.9-2.4-1.5-3.7-1.9c0.1,0.5,0.2,1,0.3,1.5c0.7,0.3,1.5,0.7,2.2,1.2
					c0,0.1-0.1,0.1-0.1,0.2c-0.4,1-0.8,2-1.4,2.9c0.1,0.5,0.2,1,0.3,1.5c1.1-1.5,2.1-3.1,2.7-4.8C73.5,2.7,73.4,2.6,73.3,2.5z"/>
				<path fill="#CC5327" d="M52.7,15.5C52.7,15.5,52.7,15.5,52.7,15.5c0.4-8.1,9.1-16.8,17.1-13.5c-0.1-0.5-0.2-1-0.3-1.5
					C61-1.9,51.5,7.3,52,16.1c0,0.2,0.2,0.2,0.3,0.1c3.2,2.2,8.4-0.5,11.2-2.2c2.6-1.6,5.2-3.7,7.2-6.2c-0.1-0.5-0.2-1-0.3-1.5
					C66.8,12,59.2,15.8,52.7,15.5z"/>
				<path fill="#CC5327" d="M63.1,18c-5-0.9-11.2,2.3-13.5,6.7c-0.3,0.5,0.4,0.4,0.6,0.1c2.8-3.6,7.4-5,11.8-4.6c2,0.2,3.6,1,5,2.4
					c1.8,1.9,1,4.4,1,6.7c0,0.5,0.7,0,0.8-0.2C71,24,68.6,18.9,63.1,18z"/>
				<path fill="#F6971D" d="M71.5,29.8c-0.1,0.6,0.7,0.2,0.8-0.2c0.4-1.6,0.9-3.2,1.6-4.8c-0.1-0.6-0.2-1.2-0.4-1.8
					C72.7,25.2,72,27.5,71.5,29.8z"/>
				<path fill="#F6971D" d="M114.9,14.8c-0.8-2.5-3.4-3.3-5.7-3.5c-1.4-0.2-8.9,1-9,1.1c1.4-4.3-1.6-5.5-5.2-4.3
					c-3.3,1.1-6.5,3.4-8.9,6.1c-0.5-3.3-2.8-4-6-1.2c-3,2.6-5.2,6.2-6.7,10c0.1,0.6,0.2,1.2,0.4,1.8c0.4-1.1,0.9-2.2,1.4-3.3
					c1.3-2.8,9.8-13.6,9.3-4.9c-0.1,1,1.4-0.1,1.6-0.4c2.3-3.5,14.8-11.6,11.9-2c-0.1,0.4,0.1,0.8,0.6,0.6c2.7-0.9,5.4-1.6,8.2-1.9
					c9.8-1,5.8,9.8-0.1,13.2c-0.6,0.3-0.9,1.6,0.1,1.2C112,25,116.8,20.8,114.9,14.8z"/>
				<path fill="#F6971D" d="M105.5,27.9c-0.9-0.1-2.3,1.8-1.1,2c1.9,1.9,2,3.1,0.3,3.8c-1.2,0.8-2.5,1.5-3.9,2
					c-2.7,1.2-5.7,1.6-8.6,1.6c-0.6,0-2.3,1.5-1.2,1.9c1.1,0.4,2.2,0.9,3.3,1.4c4.1,2-5.4,3.2-6.2,3.3c-2.7,0.3-5.5,0.3-8,1.4
					c-0.1,0-0.3,0.2-0.1,0.3c4.1,1.3,13,0.5,16.4-2.6c2-1.8,1.1-3.2-0.6-4.1c4.2-0.7,8.5-2.3,11.3-5.1
					C110,30.9,109.8,28.4,105.5,27.9z"/>
				<path fill="#F6971D" d="M74.2,34c-1.1,1.3,0,2.2,1.3,1.4c0.1-0.1,0.3-0.2,0.4-0.3c-0.2-0.8-0.3-1.6-0.5-2.4
					C75,33.1,74.6,33.5,74.2,34z"/>
				<path fill="#F6971D" d="M99.6,21.4c-8,2.2-17.9,5.3-24.1,11.3c0.2,0.8,0.3,1.6,0.5,2.4c3.7-2.2,7-4.9,10.8-6.9
					c4.2-2.2,8.5-4,12.7-6.3C99.6,21.8,100,21.3,99.6,21.4z"/>
				<path fill="#CC5327" d="M47.1,14.6c0.6,1.4,0.7,2.9,0.8,4.3C48,20,47.7,21,48.1,22c0,0.1,0.2,0,0.2,0c3.4-5,0.3-12.1-3.5-15.9
					c-1.1-1.1-3.7,1.7-2.6,2.5C44.4,10.2,46.1,12.1,47.1,14.6z"/>
			</g>
			<g>
				<path fill="#CC5327" d="M54.1,94.6c-1.5,0-3,0-4.4,0c0,0.4,0,0.9,0,1.3c1.5-0.2,2.9-0.4,4.2-0.7C54,95.2,54.5,94.6,54.1,94.6z"
					/>
				<path fill="#CC5327" d="M64.6,69.7c0.3-0.2,0.7-1.1,0-0.9c-5,1.6-10.1,2.6-15.1,2.7c0,0.6,0,1.2,0,1.8
					C54.9,73.4,60.2,72.3,64.6,69.7z"/>
				<path fill="#CC5327" d="M73.5,93.5c0-0.4-0.1-0.8-0.2-1.2c-0.1-0.7-0.2-1.3-0.2-2c1.3-0.6,2.5-1.3,3.6-2.1
					c0.2-0.2,0.4-0.3,0.6-0.5c0.3-0.2,0.5-0.5,0.6-0.8c1-4.6,3.9-11-0.2-14.9c-1.2-1.1-4.9-3.2-6.8-2.2c0-0.5,0.1-0.9,0.1-1.4
					c0.3-0.2,0.4-0.6,0.4-0.8c-1.1-5.4-15.4-6.4-22-6.6c0,0.8,0,1.5,0.1,2.3c1.1,0.1,2.2,0.2,3.1,0.3c4,0.4,7.9,1.3,11.7,2.6
					c1.8,0.6,3.4,2,5.2,2.5C69.2,68.7,69,69,69,69.2c-0.3,3-1.4,5.9-1.9,8.9c-5.6,2.2-11.5,2.9-17.5,2.5c0,0.9,0,1.7,0,2.6
					c8.3,0.5,16.7-1.2,23.2-6.3c0.9-0.7,1-2.3-0.4-1.4c-0.9,0.6-1.9,1.1-2.9,1.6c0.4-2.1,0.9-4.1,1.2-6.2c1.2,0.8,4.6,2.7,4.9,3
					c3.3,3.2,1.3,8.3,0.3,12.3c-3.2,1.9-6.4,3.8-9.7,5.5c-0.1,0.1-0.6,0.7-0.2,0.7c1.9-0.2,3.8-0.7,5.6-1.3
					c-0.1,0.7-0.1,1.4-0.1,2.2c0,0.4-0.1,0.9,0,1.4c-0.4,0.5-0.6,1.1-0.2,1.4c4,3,4.5,11.8,5,16.3c0.3,3.1,0.1,6.3-0.1,9.4
					c-0.1,1-0.5,2.4-0.8,3.7c-4,1-7.7,3-11.7,4.2c-4.6,1.4-9.5,1.9-14.3,1.9c0,1,0,2.1,0,3.2c9-0.4,19-2.4,25.9-8.2
					c0,0.2-0.1,0.4-0.1,0.5c1-1,2-1.8,3.1-2.7c1.1-4.1,0.4-9.8,0.3-12.9C78.4,105.6,78.8,96.9,73.5,93.5z"/>
				<path fill="#CC5327" d="M61.5,98.4c-4,1.1-8,1.7-11.9,1.8c0,0.8,0,1.6,0,2.3c4-0.5,8-1.6,11.8-3.6
					C61.6,98.8,61.9,98.3,61.5,98.4z"/>
				<path fill="#B3A633" d="M48,131.2c-8.9-0.2-14.7-1.2-21.5-7.2c0,0-0.1,0-0.1,0c-0.5-4.1-0.9-8.1-1-12.2
					c-0.1-3.3-0.9-12.1,2.6-14.2c6.6,4.1,14.2,5.8,21.7,5c0-0.8,0-1.6,0-2.3c-6.9,0.2-13.6-1.2-20.2-4.5c0-0.4-0.1-0.8-0.2-1.3
					c-0.1-0.7-0.2-1.3-0.3-2c5.3,3.8,14.1,4.3,20.7,3.5c0-0.4,0-0.9,0-1.3c-3.7,0-7.3-0.3-11-1.4c-4-1.1-7.6-3.8-11.5-4.9
					c0.1-0.6,0-1-0.3-1.8c-0.5-1.7-0.7-3.4-0.7-5.2c0-1.7,0.4-3.5,1.1-5.1c0.8-1.7,2.7-1.8,4.2-2.7c0,0,0,0,0,0
					c0.8,1.3,1.5,2.7,2.3,4c-0.3-0.1-0.7-0.2-1-0.3c-0.8-0.2-2.2,1.4-1.3,1.7c5.5,2.2,11.9,3.7,18.3,4.1c0-0.9,0-1.7,0-2.6
					c-4.2-0.2-8.3-1-12.4-2c0.1-0.2,0.1-0.5,0-0.7c-2-3.2-3.9-6.4-6.6-9c0.1-0.2,0.2-0.3,0.3-0.5c5.3,3,12.1,4.9,18.7,4.9
					c0-0.6,0-1.2,0-1.8c-6.2,0.1-12.3-1-18.4-3.6c3.5-5.1,11.9-5.2,18.2-4.7c0-0.8,0-1.5-0.1-2.3c-0.9,0-1.7,0-2.2,0
					c-6.4,0-16,1.2-18.2,8.5c-0.1,0.2-0.1,0.3-0.1,0.5c0,0.1,0,0.1,0.1,0.2c0,0,0,0,0,0c0.7,0.8,1.3,1.7,1.9,2.6
					c-2.1-0.7-5.4,3.4-6,4.8c-1.8,3.6-1.3,8.4,0,12c0.1,0.2,0.3,0.4,0.6,0.4c0.2,0,0.3,0,0.5,0c0.1,0,0.2,0,0.3-0.1
					c0.5,0.7,1.1,1.4,1.8,2c0,1,0,1.9,0,2.9c0,0.3,0,0.5,0,0.8c-0.5,0.2-0.9,0.8-1,1.2c-3.1,2.1-3.6,6.6-3.9,10.1
					c-0.5,6.1,0.2,12.4,1,18.5c-0.1,0.2-0.1,0.5,0,0.7c3.8,8.5,14.3,8.6,22.2,8.5c1,0,2.1-0.1,3.1-0.1c0-1.1,0-2.1,0-3.2
					C48.9,131.2,48.4,131.2,48,131.2z"/>
			</g>
			<g>
				<g>
					<path fill="#B3A633" d="M123.3,44.6c-0.2,0.3-0.5,0.6-0.7,0.8c0.3,0.5,0.7,1,1,1.5c4.7-5.5,9.1-11.4,10.4-18.2
						c0.2-1-1.7,0.1-1.8,0.8c-0.1,0.7-0.3,1.3-0.5,1.9c-0.8-1.5-2.1-2.9-2.2-4.8c-0.2-3.7,4.9-4.1,7.4-3.5c2.6,0.6,4.6,2.8,6.1,4.9
						c0.9,1.3,1.5,2.9,1.6,4.5c0.2,3.1-3.3,4.5-5.6,2.9c-0.2-0.1-0.4-0.1-0.6-0.1c0.8-0.6,1.6-1.2,2.5-1.7c0.6-0.3,1-1.6,0.1-1.2
						c-3.8,1.9-6.7,5-9,8.6c-1.7,2.6-4,6.3-4.9,9.8c0.4,0.4,0.8,0.8,1.2,1.3c0.8-1.9,1.6-3.8,2.5-5.8c2.3,0.7,4.6,1.5,6.9,2.6
						c0.5,0.2,1.4-0.6,1.1-1.1c1.4,0,2.6,0.1,4,0.8c1.2,0.6,2,1.7,2.4,2.9c0.9,2.7-2.4,4.6-4.4,5.5c-2.2,1-4.6,1.3-7,1.7
						c0.3,0.5,0.7,0.9,1,1.4c1-0.2,2.1-0.5,3-0.7c2-0.5,4.3-1.4,6-2.7c-0.3,0.7-0.6,1.3-1,2c-1.3,2.3-3.4,3.7-5.7,4.8
						c0,0-0.1,0-0.1,0.1c0.1,0.1,0.2,0.3,0.2,0.4c0.7-0.2,1.4-0.4,2-0.7c-0.3,0.9-0.6,1.8-0.9,2.6c0.3,0.6,0.7,1.2,1,1.8
						c0.7-1.8,1.4-3.6,1.8-5.6c2.8-2.2,4.4-5.6,5.8-9.1c0.2-0.4,0-0.6-0.3-0.5c0.8-4.5-5.3-7.5-9.5-5.5c-1.8-0.9-3.7-1.7-5.6-2.4
						c1.5-3.1,3.3-6,5.8-8.3c-0.1,0.2-0.1,0.5,0.1,0.6c3,2.1,7.2,0.4,8.5-3c1.7-4.7-2.4-9.9-6.5-11.8c-3.6-1.7-8-0.6-10.4,2.4
						c-2.2,2.8-2,8,1.9,9c-1.4,3.5-3.7,6.5-6.1,9.3c-1.4-0.2-2.8-0.4-4.3-0.5c0.4,0.7,0.8,1.4,1.3,2.1
						C122.4,44.5,122.9,44.6,123.3,44.6z"/>
					<path fill="#B3A633" d="M137.3,64c0.1,0,0.2,0,0.2-0.1c-0.1-0.1-0.2-0.3-0.2-0.4C137.1,63.7,136.9,64,137.3,64z"/>
					<path fill="#B3A633" d="M135,51.6c0.3-1-1-0.4-1.3,0c-0.9,1.2-2,2-3.3,2.7c0.4,0.4,0.7,0.8,1.1,1.3
						C133.1,54.6,134.4,53.4,135,51.6z"/>
				</g>
				<g>
					<path fill="#EB7723" d="M105,54c-0.5,0.2-1.4,1.8-0.3,1.5c1.3-0.3,2.6-0.5,3.9-0.5c0.1-0.7,0.2-1.4,0.2-2.1
						C107.6,53.1,106.3,53.5,105,54z"/>
					<path fill="#EB7723" d="M100.8,78.6c-3.6-2.6-6.5-7.7-7.2-12.3c1.4,0.4,3,0.4,4.4-0.1c0.3-0.1,0.9-0.8,0.4-1
						c-1.4-0.7-3.2-0.8-4.7-1.4c-0.1-0.1-0.3-0.1-0.4-0.2c-0.1-0.2-0.2-0.3-0.5-0.2c-1.2-0.7-2.2-1.7-3.3-2.6
						c-0.5-0.5-1.5-1.5-2.3-2.6c2.1,1.5,5.1,2.1,7.5,2.3c0.2,0,1,0,1.8-0.1c1,1.3,3.1,1.9,4.6,2.1c2,0.3,4.3,1,6.3,1
						c0.1-0.5,0.1-1,0.2-1.4c-1.1-0.5-2.8-0.6-3.9-0.7c-2.5-0.3-4.6-0.9-7-1.7c-0.1,0-0.2,0-0.3,0.1c-0.1-0.1-0.2-0.1-0.3-0.2
						c0,0-0.1-0.1-0.1-0.1c-3.2,0.2-6.9-1-9.1-2.9c-0.8-0.7-1.3-1.6-1.3-2.4c0.1-0.3,0.1-0.4,0-0.5c0.1-1.1,0.9-2.2,2.2-2.8
						c1.5-0.7,3.3-0.9,4.9-1.3c0,0,0,0,0.1,0c0.1,0,0.1,0,0.2,0c5.3-2.7,10.7-4.3,16.3-5c0-0.5,0-1.1,0-1.6
						c-5.7,0.9-11.1,2.8-15.8,5.7c0-0.1-0.1-0.1-0.3-0.1c-3.6,0.1-9.2,2.1-8.7,5.9c-1.3,2.4,1.1,5.9,2.6,7.7
						c1.2,1.4,2.7,2.7,4.4,3.6c-0.2,6.2,3.4,12.3,8.4,15.7c1.6,1.1,3.5,1.8,5.6,2.3c0-0.9,0-1.7,0.1-2.6
						C103.9,80.4,102.3,79.7,100.8,78.6z"/>
					<path fill="#EB7723" d="M98.8,52.9c-0.5-0.6-2,0.7-1.5,1.4c2.4,3,6.6,3.9,11,4c0.1-0.7,0.2-1.4,0.3-2
						C104.8,56,101.1,55.3,98.8,52.9z"/>
				</g>
				<g>
					<path fill="#F6971D" d="M125.3,65.9c-2.7,1.9-5.1,3.8-8.6,4c-3.2,0.1-6.1-2.2-8.2-4.4c-0.2-0.2-0.5,0.2-0.4,0.4
						c2,3.1,4.8,5.8,8.8,5.3c3.4-0.4,6.5-2.2,8.7-4.9C125.9,66,125.6,65.6,125.3,65.9z"/>
					<path fill="#F6971D" d="M126.9,54.1c0,0.5,0.7,0,0.8-0.2c0.3-0.6,0.5-1.2,0.8-1.8c-0.4-0.4-0.8-0.9-1.2-1.3
						C127,52,126.9,53.1,126.9,54.1z"/>
					<path fill="#F6971D" d="M122.6,45.5c-1.8,2-3.5,4.1-5,6.3c-2.9,0.2-5.8,0.4-8.7,1c-0.1,0.7-0.2,1.4-0.2,2.1
						c2.3-0.1,4.7,0.1,7,0.1c0,0-0.1,0.1-0.1,0.1c-0.3,0.7,0.5,0.5,0.8,0.1c2.2-2.7,4.8-5.5,7.2-8.4C123.3,46.5,122.9,46,122.6,45.5
						z"/>
					<path fill="#F6971D" d="M107.9,63.5c0.2,0,0.5-0.2,0.7-0.4c4.1,6.7,16.4,5.7,18.8-1.9c2.5,0,5.2-0.5,7.7-1
						c-0.3-0.5-0.7-0.9-1-1.4c-2.3,0.3-4.5,0.7-6.5,1.8c0-0.1,0-0.2,0.1-0.3c0.2-1-1.2-0.3-1.4,0.3c-2.1,7.5-13.4,6.7-17.2,1.3
						c-0.2-0.2-0.7,0.1-0.8,0.4c-0.1-0.1-0.2-0.1-0.4-0.2c-0.1,0.5-0.1,1-0.2,1.4C107.7,63.5,107.8,63.5,107.9,63.5z"/>
					<path fill="#F6971D" d="M138.7,65.8c-4,10.4-12.2,16.2-24.1,16.2c-2.9,0-6-0.2-8.9-1.1c0,0.9-0.1,1.7-0.1,2.6
						c4.2,0.9,9,0.7,12.6,0.3c10.1-1.1,17.7-7.4,21.4-16.2C139.3,67,139,66.4,138.7,65.8z"/>
					<path fill="#F6971D" d="M109.5,44.4c4.1-0.5,8.3-0.5,12.5,0c-0.4-0.7-0.9-1.4-1.3-2.1c-3.7-0.3-7.5-0.1-11.2,0.5
						C109.5,43.4,109.5,43.9,109.5,44.4z"/>
					<path fill="#F6971D" d="M130.4,54.2c-4.1,2-9.7,1.8-13.9,1.9c-2.3,0-5.1,0.2-8,0.1c-0.1,0.7-0.2,1.4-0.3,2
						c3.7,0.1,7.4-0.3,10.2-0.3c3.6-0.1,9.2-0.3,12.9-2.4C131.1,55.1,130.8,54.7,130.4,54.2z"/>
				</g>
			</g>
			<g>
				<g>
					<path fill="#EB7723" d="M118.8,88.9c0-0.2,0-0.4,0-0.6c-0.1,0-0.1,0.1-0.2,0.1c-0.4,0.2-0.7,0.2-1.1,0.2c-2.2,1.3-4.3,3-6,5
						c0.2,0.2,0.4,0.5,0.6,0.7c1.5-1.9,3.4-3.6,5.5-4.8c-0.6,2.8-1.3,5.6-2.4,8.3c0.2,0.3,0.5,0.5,0.7,0.8c1.3-2.7,2.1-5.7,2.9-8.8
						C118.9,89.5,118.8,89.2,118.8,88.9z"/>
					<path fill="#EB7723" d="M137,86.8c-0.5-0.1-1-0.1-1.5-0.2c0,0,0,0.1,0,0.1c-7.8,0.5-16.2,5.8-17.6,13.7
						c0.3,0.3,0.5,0.6,0.8,0.9c2.4-7.5,8-12.7,16.3-13c-2.7,6.7-8.6,11.6-15.3,14c0.3,0.4,0.7,0.7,1,1
						C128,100.9,134.6,94.1,137,86.8z"/>
					<path fill="#EB7723" d="M129.9,100.7c6.5,3,14.9-0.1,19.8-5.4c0.6,0.1,1.5-0.8,1.5-1.4c-0.4-0.2-0.8-0.5-1.2-0.7
						c0,0-0.1,0-0.1-0.1c0,0,0,0-0.1,0.1c-7.4-1.9-14.1,1.4-19.5,6.6C129.9,100,129.5,100.5,129.9,100.7z M147.9,94.8
						c-4.9,3.9-10.1,6.8-16.8,5.1C136,95.9,141.7,93.2,147.9,94.8z"/>
					<path fill="#EB7723" d="M145.9,112.2c2,0.4,5.8,0.9,8.7,0.2c0.3-0.4,0.9-0.7,1.3-0.9c0.3-0.2,0.8-0.4,1.2-0.6
						c-0.2-0.2-0.3-0.4-0.5-0.6c-0.1-0.2-0.2-0.4-0.4-0.6c-5.1-4.7-9.8-7.6-17.3-6.9c-0.2,0-0.6,0.3-0.7,0.6
						c-0.1,0.1-0.2,0.2-0.2,0.3C137.2,109,141.5,111.3,145.9,112.2z M154.1,110.7c-0.1,0-0.1,0-0.2,0c-2.1,0.4-4.2,0.3-6.3,0
						c-3.9-0.4-8.7-2.4-8.9-6.9C145.3,104.1,149.4,106.9,154.1,110.7z"/>
					<path fill="#EB7723" d="M138.8,113c-0.1-0.4-0.2-0.8-0.3-1.2c-0.5-1.9-1.2-3.6-2.2-5.3c-1.2-2-3.7-4-6.1-3.8
						c0.5-0.2,1-0.3,1.4-0.5c0.1,0,0.2-0.2,0.1-0.2c-3.5,0.4-7,1-10.5,1.9c0.4,0.4,0.8,0.9,1.3,1.3c1.9-0.6,3.8-1.3,5.6-1.9
						c-1.2,1.9-0.9,3.8,0.2,5.5c-1.1-0.7-2.4-1.2-3.8-1.6c2.5,2.4,4.9,4.8,7.4,7.1c-0.1-0.9-0.3-1.8-0.7-2.5c1.6,1.2,3.5,2.2,5.3,3
						c0.7,0,1.5,0.2,2.1,0.5C138.7,114.6,138.6,113.8,138.8,113z M128.3,103.4c0.1,0,0.2,0,0.2-0.1c0,0-0.1,0.1,0,0.1
						c0.7,0.7,2,0.5,2.9,0.9c1.5,0.6,2.5,1.7,3.4,3c1.2,1.7,1.9,3.8,2.3,5.9C132.7,111.5,128.1,108.1,128.3,103.4z"/>
				</g>
				<g>
					<path fill="#F6971D" d="M111.3,125.2c-1.1-1.3-2.5-2.4-3.9-3.4c-1.8-0.3-3.7-0.6-5.5-0.9c1.2,0.3,2.3,0.9,3.4,1.7
						c1.6,1.2,2.8,2.9,4.2,4.3c-0.2,0-0.4,0-0.6,0c-1.8,0-3.6-0.7-5.3-1.3c-3-1.1-5.6-2.8-8-4.9c1.5-0.3,2.8-0.4,4.2-0.3
						c-1.1-0.2-2.2-0.4-3.4-0.6c-0.4,0.1-0.9,0.3-1.3,0.5c0,0,0,0,0,0c0.2-0.2,0.4-0.4,0.6-0.6c-0.9-0.2-1.7-0.3-2.6-0.5
						c-3.9,4.2-7,9.1-8.8,15c-0.8,2.7,3.5,0.9,3.9-0.9c1.1-4.9,3.4-8.9,6.4-12.3c1.4,4.1,9.7,8.8,14.9,7.9c0.7-0.6,1.5-1.2,2.5-1.6
						c-0.2-0.5-0.4-1.1-0.6-1.6C111.4,125.6,111.4,125.4,111.3,125.2z"/>
				</g>
				<g>
					<path fill="#B3A633" d="M96.9,114.4C96.9,114.4,96.9,114.5,96.9,114.4c0.2,0.6,1.1-0.1,1-0.6c7-4.5,9.2-13.9,7.5-21.7
						c-0.1-0.5-0.8-0.1-1.2,0.3c-9.3,2.1-9.4,13.8-7.5,21.2C96.5,114,96.6,114.4,96.9,114.4z M97.1,103.7c0.2-5.2,3.1-7.7,7-10.2
						c1.3,6.8-0.4,15.1-6.2,19.4C97.2,109.9,96.9,106.8,97.1,103.7z"/>
					<path fill="#B3A633" d="M114.9,98.9c-1.7,3.8-4.7,6.3-8,8.6c0.6-4.7,2.3-9.5,5.3-13.2c-0.2-0.2-0.4-0.5-0.6-0.7
						c-3.5,4.1-5.6,9.4-5.5,14.5c-0.2,0.1-0.3,0.2-0.5,0.3c-0.2,0.1-0.3,0.5,0,0.3c0.2-0.1,0.3-0.1,0.5-0.2c0.1,0.3,0.6,0,0.8-0.3
						c4.6-2.2,7.4-5.6,9.3-9.7c-0.2-0.3-0.5-0.5-0.7-0.8C115.2,98.2,115.1,98.5,114.9,98.9z"/>
					<path fill="#B3A633" d="M118.2,102.6c0.1-0.5,0.3-0.9,0.4-1.4c-0.3-0.3-0.6-0.6-0.8-0.9c-0.2,0.8-0.3,1.6-0.3,2.5
						c-0.5,0.3-1.1,1.2-0.2,1.1c1.1-0.2,2.2-0.4,3.2-0.7c-0.3-0.3-0.7-0.7-1-1C119.1,102.4,118.6,102.5,118.2,102.6z"/>
					<path fill="#B3A633" d="M100.9,115.5c4.6,4.1,13.5,5.7,18.8,2.3c0.2-0.1,0.5-0.3,0.6-0.4c0,0,0.1-0.1,0.1-0.1l-0.2-0.2
						c-0.3-0.4-0.4-0.8-0.2-1.2c-4.8-4.8-9.8-4.8-15.4-2.7c3-1.8,6.3-3.3,9.6-4.7c2.6,5.4,10.2,8.4,15.9,8.4c0.5-0.1,1-0.2,1.5-0.2
						c0.1-0.2,0.2-0.3,0.3-0.5c0,0,0,0,0-0.1c0.3-0.5,0.5-0.9,0-1c0-0.2,0-0.4,0-0.6c-2.5-2.3-5-4.7-7.4-7.1c-1.9-0.5-4-0.7-5.9-0.7
						c1.3-0.5,2.5-0.9,3.8-1.3c-0.4-0.4-0.8-0.9-1.3-1.3c-9.5,2.4-18.7,6.6-25.7,13c0.8-6.1-4.7-15.1-10.2-15.9c0,0.2,0,0.5-0.2,0.7
						c0.3-0.6-0.1,0.2-0.1,0.3c0,0.1-0.1,0.1-0.1,0.2c0,0,0,0,0,0c-1.8,2.7-0.8,6.3,0.5,9c1.3,2.6,4.8,7.5,8.1,7.6
						c-0.1,0.1-0.3,0.3-0.4,0.5c0.9,0.2,1.7,0.3,2.6,0.5C97.4,118.3,99.1,116.9,100.9,115.5z M115.8,107.7
						c5.4-0.2,13.3,1.6,14.3,7.3c-5.9-0.2-10.3-3.6-15-7C115.3,107.9,115.6,107.8,115.8,107.7z M110.2,113c3.1,0,5.6,1.9,7.8,3.9
						c-5,1.6-11.3,0.7-15.7-2.1C104.8,113.8,107.4,113,110.2,113z M91.4,115.9c-1.3-1-2.3-2.2-3.3-3.5c-2.2-2.9-3.4-6.4-2.6-9.9
						c0,0,0.1,0,0.1,0.1c0,0,0.1,0,0.1,0c4.8,2.1,8.3,9.5,8,14.8C93.1,116.9,92.1,116.5,91.4,115.9z"/>
					<path fill="#B3A633" d="M102,121c1.8,0.3,3.7,0.6,5.5,0.9c-0.7-0.5-1.5-1-2.2-1.4c-2.8-1.6-5.8-1.4-8.7-0.5
						c1.1,0.2,2.2,0.4,3.4,0.6C100.6,120.7,101.3,120.8,102,121z"/>
				</g>
			</g>
		</g>
	</g>
</g>
</svg>
