<?xml version="1.0" encoding="utf-8"?>
<!-- Generator: Adobe Illustrator 16.0.0, SVG Export Plug-In . SVG Version: 6.00 Build 0)  -->
<!DOCTYPE svg PUBLIC "-//W3C//DTD SVG 1.1//EN" "http://www.w3.org/Graphics/SVG/1.1/DTD/svg11.dtd">
<svg version="1.1" id="Layer_1" xmlns="http://www.w3.org/2000/svg" xmlns:xlink="http://www.w3.org/1999/xlink" x="0px" y="0px"
	 width="25.8px" height="22.2px" viewBox="0 0 25.8 22.2" enable-background="new 0 0 25.8 22.2" xml:space="preserve">
<g>
	<g>
		<g>
			<g>
				<path fill="#2AA8DF" d="M25.8,3.1c-0.9,0.4-2,0.7-3,0.8c1.1-0.7,1.9-1.7,2.3-2.9c-1,0.6-2.2,1-3.4,1.3c-1-1-2.3-1.7-3.9-1.7
					c-2.9,0-5.3,2.4-5.3,5.3c0,0.4,0,0.8,0.1,1.2C8.3,6.9,4.4,4.8,1.8,1.6C1.3,2.4,1.1,3.3,1.1,4.2c0,1.8,0.9,3.5,2.4,4.4
					C2.6,8.6,1.7,8.4,1,8c0,0,0,0,0,0.1c0,2.6,1.8,4.7,4.3,5.2c-0.4,0.1-0.9,0.2-1.4,0.2c-0.3,0-0.7,0-1-0.1c0.7,2.1,2.6,3.6,5,3.7
					c-1.8,1.4-4.1,2.3-6.6,2.3c-0.4,0-0.8,0-1.3-0.1c2.3,1.5,5.1,2.4,8.1,2.4c9.7,0,15.1-8.1,15.1-15.1c0-0.2,0-0.5,0-0.7
					C24.2,5.1,25.1,4.2,25.8,3.1L25.8,3.1z"/>
			</g>
		</g>
	</g>
</g>
</svg>
