<?xml version="1.0" encoding="utf-8"?>
<!-- Generator: Adobe Illustrator 16.0.0, SVG Export Plug-In . SVG Version: 6.00 Build 0)  -->
<!DOCTYPE svg PUBLIC "-//W3C//DTD SVG 1.1//EN" "http://www.w3.org/Graphics/SVG/1.1/DTD/svg11.dtd">
<svg version="1.1" id="Layer_1" xmlns="http://www.w3.org/2000/svg" xmlns:xlink="http://www.w3.org/1999/xlink" x="0px" y="0px"
	 width="225.128px" height="88.688px" viewBox="0 0 225.128 88.688" enable-background="new 0 0 225.128 88.688"
	 xml:space="preserve">
<g>
	<g>
		<g>
			<g>
				<path fill="#CC5327" d="M53.492,36.141c-2.719,2.863-3.097-6.707-3.099-6.727c-0.164-3.125-0.146-6.265-0.161-9.393
					c-0.009-1.953-2.96,0.035-3.179,1.11c-1.312,6.448-3.013,13.542-6.99,18.895c-4.234,5.695-5.272-0.963-5.349-2.628
					c-0.09-1.995,0.206-4.001,0.481-5.974c0.511-3.671,1.434-7.34,2.49-10.889c0.415-1.394-1.653-0.336-1.93,0.455
					c-0.723,2.078-3.558,9.947-4.033,16.021c-1.057,1.087-5.219,5.134-5.143,1.639c0.061-2.688,0.371-5.381,0.549-8.063
					c0.252-3.851-0.095-7.389-1.628-10.942c-0.461-1.071-1.893-0.257-2.454,0.268c-3.514,3.258-5.944,7.16-7.636,11.411
					c-0.133-4.087-0.504-8.148-1.49-12.206c-0.1-0.415-0.661-0.317-0.933-0.19C7.897,21.33,3.302,24.6,0.651,29.673
					c-0.366,0.701,0.581,0.379,0.818,0.018c2.503-3.792,5.635-6.208,9.588-8.279c1.775-0.929,1.83,7.144,1.86,8.374
					c0.11,4.485-0.404,8.981-0.493,13.465c-0.039,1.922,2.854-0.256,3.024-1.385c0.996-6.609,2.912-13.242,7.317-18.313
					c1.834,6.063,0.486,12.524,0.368,18.792c-0.011,0.549,0.302,0.791,0.806,0.865c3.539,0.509,5.623-0.83,7.798-2.928
					c0.33,2.762,1.61,4.566,4.555,4.197c5.476-0.684,8.776-6.388,10.88-12.443c0.139,2.893,0.365,5.778,0.78,8.661
					c0.071,0.497,0.782,0.587,1.15,0.469c3.313-1.067,5.829-2.96,7.763-5.37c-0.172-0.938-0.519-1.861-1.156-2.729
					C55.093,34.173,54.372,35.215,53.492,36.141z"/>
				<path fill="#B3A633" d="M93.271,35.076c-1.493-1.427-1.507-4.108-1.056-6.741c0.804-2.168,1.345-4.403,1.674-6.367
					c0.335-1.977-2.997,0.146-3.326,1.163c-0.399,1.23-0.724,2.582-0.952,3.963c-1.453,4.651-4.475,10.44-8.972,6.521
					c-3.762-3.277,0.12-9.803,2.099-12.815c0.526-0.801,0.15-1.947-0.947-1.625c-0.935,0.276-5.774,0.966-8.833,0.438
					c-0.153-2.072-0.818-3.847-2.46-4.431c-1.022-0.365-2.24,0.714-2.673,1.54c-1.997,3.802-0.736,5.656,1.764,6.404
					c-0.194,2.241-0.852,4.589-1.117,5.465c-1.085,3.583-3.321,6.922-6.238,9.299c0.201-8.228,1.216-18.214,1.468-27.398
					c7.2,0.229,14.574-0.536,20.538-3.02c0.355-0.148,1.152-1.112,0.381-1.225c-5.41-0.765-10.927,0.511-16.368,0.746
					c-1.505,0.063-3.005,0.076-4.509,0.063c0.008-2.162-0.024-4.282-0.153-6.275c-0.134-2.085-3.372,0.138-3.372,1.542
					c0,1.413-0.032,3.004-0.09,4.664c-2.992-0.08-5.986-0.185-8.983-0.117c-0.659,0.015-2.392,1.785-1.325,2.001
					c3.141,0.638,6.599,1.137,10.168,1.417c-0.273,5.205-0.799,10.789-1.602,14.947c-0.519,2.682-1.324,5.422-2.674,7.832
					c0.638,0.866,0.984,1.79,1.156,2.729c0.865-1.078,1.625-2.248,2.269-3.513c-0.163,3.021-0.297,6.04-0.333,9.066
					c-0.016,1.261,1.402,0.806,2.059,0.42c5.352-3.144,8.656-8.247,10.847-13.943c0.351-0.908,0.786-2.514,1.053-4.284
					c1.929,0.022,4.042-0.254,5.882-0.644c-2.531,5.146-5.446,14.908,2.425,15.142c3.651,0.111,6.353-1.705,8.331-4.335
					c0.617,4.542,3.2,7.338,9.104,3.59c0.071-0.95,0.187-1.904,0.365-2.832C96.985,36.036,94.972,36.7,93.271,35.076z"/>
				<path fill="#FFD474" d="M162.438,17.11c-1.188,0.014-3.798,2.274-2.17,3.28c2.586,1.6,3.917,4.104,4.965,6.88
					c1.783,4.728-1.846,11.942-7.071,7.539c-4.123-3.479-0.166-13.329,1.861-16.982c0.395-0.709,0.371-1.572-0.561-1.697
					c-5.713-0.764-10.33,0.328-15.148,3.42c-0.718,0.464-1.525,1.436-1.309,2.354c1.423,5.967,0.869,11.204-1.322,16.533
					c-3.748-4.731-4.652-11.063-6.214-16.825c-0.521-1.916-3.228,1.012-3.396,1.921c-0.293,1.609-0.639,3.19-1.047,4.744
					c0.765,0.765,1.529,1.53,2.294,2.294c0.09-0.265,0.195-0.523,0.282-0.792c0.125,0.491,0.259,0.979,0.396,1.468
					c0.014,0.017,0.027,0.029,0.043,0.044c-0.016-0.015-0.029-0.027-0.043-0.044c1.205,4.354,2.816,8.524,6.199,11.738
					c0.944,0.896,2.564-0.583,2.983-1.384c3.514-6.71,4.864-13.232,3.463-20.546c3.211-1.701,6.124-2.072,9.675-1.74
					c-3.195,7.109-6.288,22.44,5.694,19.91c9.09-1.918,8.909-12.641,4.11-18.926c2.082-0.084,4.16-0.206,6.236-0.347
					c-0.135-1.075-0.334-2.146-0.611-3.203C168.649,16.933,165.55,17.078,162.438,17.11z"/>
				<path fill="#F6971D" d="M220.203,32.074c-2.974,7.168-7.141,12.179-15.336,10.579c-4.369-0.854-8.52-2.854-12.734-4.234
					c-5.603-1.838-10.799-1.869-15.582,0.564c3.742-7.794,8.725-14.772,13.918-21.714c0.375-0.5,1.059-2.31-0.283-2.162
					c-6.139,0.68-12.279,1.273-18.436,1.642c0.276,1.057,0.477,2.128,0.61,3.203c4.649-0.314,9.292-0.748,13.933-1.242
					c-5.646,7.655-10.838,15.415-14.584,24.249c-0.812,1.916,1.864,1.069,2.541,0.494c9.039-7.734,21.032,1.674,30.803,3.029
					c9.715,1.349,15.416-7.48,18.644-15.235C224.666,28.917,220.794,30.647,220.203,32.074z"/>
				<path fill="#B3A633" d="M91.792,18.764c1.144-0.248,2.057-0.789,2.629-1.838c0.463-0.849,1.119-1.872,0.925-2.883
					c-0.141-0.747-0.833-1.45-1.483-1.791c-0.483-0.255-1.607-0.375-1.551,0.48c-0.007,0.018-0.008,0.021-0.018,0.051
					c-0.059,0.153-0.137,0.299-0.213,0.447c-0.21,0.402-0.463,0.813-0.703,1.183c-0.634,0.968-0.629,1.965-0.826,3.061
					C90.441,18.086,91.138,18.906,91.792,18.764z M92.328,12.689C92.343,12.64,92.349,12.624,92.328,12.689L92.328,12.689z"/>
				<g>
					<g>
						<path fill="#B3A633" d="M127.027,38.08c-5.261-4.79-4.447-11.043-4.398-17.823c0.018-2.163-3.029,0.202-3.35,1.169
							c-1.626,4.904-3.041,8.636-7.112,11.914c-1.991-4.651-2.472-8.86-2.193-15.083c0.429-2.521,0.864-5.771,1.256-8.999
							c4.635-0.338,9.402-0.849,10.459-0.846c1.611,0.006,4.02-3.585,1.92-3.526c-1.297,0.036-6.788,0.26-11.97,0.854
							c0.191-1.731,0.369-3.38,0.508-4.791c0.234-2.34-3.097-0.01-3.341,1.408c-0.194,1.14-0.41,2.454-0.629,3.854
							c-3.822,0.62-6.803,1.498-6.668,2.738c0.069,0.626,2.77,0.688,6.184,0.527c-0.506,3.549-0.953,7.283-1.109,10.192
							c-0.4,2.408-0.878,3.849-1.503,5.811c-0.496,1.564-3.184,6.451-6.21,8.981c-0.18,0.928-0.295,1.882-0.366,2.832
							c0.352-0.224,0.708-0.46,1.084-0.729c3.278-2.362,5.556-5.297,7.204-8.562c0.398,3.041,1.193,5.993,2.548,8.75
							c0.427,0.865,1.408,0.458,2.044,0.077c3.676-2.217,6.027-5.279,7.791-8.767c0.203,5.394,1.316,10.562,6.171,13.926
							c0.907,0.628,2.135-0.185,2.696-0.957c2.377-3.277,4.037-6.78,5.279-10.463c-0.766-0.764-1.529-1.529-2.295-2.294
							C130.125,31.716,128.89,35.007,127.027,38.08z"/>
					</g>
					<g>
						<path fill="#B3A633" d="M123.198,16.07c-0.315,0.261,0.669-0.385,0.839-0.506c0.59-0.427,1.161-0.877,1.758-1.295
							c1.172-0.822,2.365-1.594,3.488-2.486c0.997-0.793,2.498-2.197,2.039-3.672c-0.431-1.384-2.433-0.739-3.212-0.119
							c-2.604,2.069-6.03,4.421-7.284,7.617c-0.164,0.416-0.082,0.987,0.381,1.167C121.919,17.055,122.687,16.489,123.198,16.07
							L123.198,16.07z"/>
					</g>
				</g>
			</g>
			<g>
				<path fill="#CC5327" d="M136.228,58.773c-2.924,2.727,4.348,2.873,5.413,4.93c1.095,2.112-0.486,5.342-2.478,6.338
					c-4.343,2.174-4.918-8.653-4.977-10.299c-0.076-2.136-2.77-0.398-3.414,0.385c-2.298,2.801-4.469,5.777-7.256,8.07
					c0.049-4.656,0.002-9.135-2.141-13.467c-0.478-0.962-1.586-0.532-2.297-0.085c-3.043,1.914-5.44,4.486-7.258,7.439
					c-0.337-2.687-1.075-5.297-2.335-7.646c-0.434-0.811-1.462-0.248-1.959,0.213c-5.732,5.302-11.252,10.83-15.854,17.159
					c-0.688,0.945,0.432,1.014,0.979,0.379c4.567-5.301,9.453-10.202,14.666-14.842c1.651,4.202,1.721,8.741,1.047,13.177
					c-0.295,1.201-0.529,2.418-0.693,3.644c-0.274,2.064,3.299,0.004,3.571-1.248c0.179-0.821,0.329-1.664,0.451-2.516
					c0.956-4.502,2.965-8.854,6.493-11.797c1.675,4.389,1.388,8.926,1.313,13.639c-0.022,1.5,1.658,0.935,2.431,0.494
					c3.394-1.93,6.03-4.756,8.506-7.725c0.765,5.438,3.156,11.815,9.515,7.969c3.969-2.403,8.463-9.151,4.618-13.441
					C142.771,57.533,138.255,56.882,136.228,58.773z"/>
				<path fill="#CC5327" d="M168.529,67.918c-3.691,4.779-5.199-2.879-5.1-5.801c0.068-2.01-2.734-0.404-3.26,0.368
					c-2.144,3.157-4.256,6.349-7.248,8.687c-1.389-6.533-0.299-13.063,0.228-19.588c0.972-0.086,1.681-0.151,1.908-0.168
					c0.683-0.045,1.458,0.037,2.126-0.121c0.561-0.133,0.994-0.457,1.429-0.815c-0.903,0.746,0.009,0.112,0.204-0.035
					c-0.377,0.285,0.279-0.077,0.639-0.535c0.217-0.277,0.318-0.589,0.353-0.937c0.022-0.258-0.104-0.497-0.347-0.598
					c0.035-0.024,0.068-0.052,0.103-0.078c-0.058-0.361-0.519-0.59-0.845-0.57c-1.795,0.102-3.586,0.305-5.371,0.548
					c0.088-2.396,0.033-4.79-0.329-7.185c-0.144-0.942-1.647,0.498-1.726,0.977c-0.347,2.163-0.719,4.396-1.069,6.664
					c-0.495,0.076-0.99,0.15-1.483,0.228c-2.107,0.326-5.67,0.104-6.039,2.799c-0.07,0.518,3.664,0.353,7.059,0.104
					c-1.082,7.708-1.684,15.711,0.018,22.973c0.166,0.711,1.186,0.599,1.652,0.336c3.383-1.896,6.039-4.524,8.381-7.483
					c0.48,2.756,1.779,5.271,4.911,5.602c2.798,0.295,5.745-3.016,5.101-5.673C169.666,66.975,168.707,67.688,168.529,67.918z"/>
				<path fill="#CC5327" d="M161.68,55.672c1.169,0.512,3.282-1.674,2.735-2.668c0.013-0.054,0.027-0.101,0.031-0.167
					c0.002-0.032,0.002-0.051,0.002-0.067c0.01-0.039,0.014-0.075,0.021-0.112c0.16-0.301,0.271-0.661,0.027-0.922
					c-0.317-0.342-0.943-0.092-1.246,0.135c-0.043,0.032-0.084,0.068-0.127,0.103c-0.826,0.416-1.539,1.232-1.859,2.043
					C161.033,54.604,161.009,55.379,161.68,55.672z"/>
				<path fill="#CC5327" d="M195.896,53.79c0.775-0.085,1.452-0.564,1.827-1.255c0.28-0.517,0.272-1.061-0.254-1.254
					c0-0.004-0.005-0.014-0.013-0.026c0-0.007-0.002-0.008-0.004-0.044c-0.017-0.504-0.088-0.506-0.066-0.955
					c0.023-0.521-0.309-0.595-0.694-0.491c0.052-0.059-0.053-0.037-0.332,0.069c-0.2,0.097-0.383,0.219-0.545,0.372
					c-0.021,0.02-0.034,0.044-0.054,0.063c-0.078,0.067-0.143,0.133-0.182,0.188c0.015-0.008,0.023-0.014,0.037-0.021
					c-0.14,0.176-0.266,0.361-0.387,0.553c-0.25,0.393-0.539,0.912-0.555,1.387C194.65,53.147,195.005,53.887,195.896,53.79z"/>
				<path fill="#CC5327" d="M202.373,72.943c1.028-0.865,1.978-1.896,2.858-3.007c0.026,2.062,0.579,3.86,2.192,4.538
					c1.229,0.515,3.806-1.618,3.162-2.949c-0.758-1.574-1.283-2.59-1.308-4.425c-0.024-1.979,0.457-3.932,0.925-5.837
					c0.58-2.367-2.677-0.822-3.324,0.604c-1.824-2.674-4.611-3.7-7.836-1.493c-1.838,1.258-3.529,3.474-4.42,5.853
					c-0.615,0.947-2.095,3.941-3.574,2.82c-1.394-1.059-0.584-3.865-0.244-5.104c0.486-1.775-1.686-1.271-2.441-0.476
					c-2.896,3.048-8.277,12.147-13.097,8.277c-2.863-2.301-0.892-6.756,0.46-9.277c0.71-1.325,1.633-2.549,2.691-3.613
					c2.539-0.061,3.276,1.026,2.213,3.261c-0.264,0.612-0.568,1.118-0.814,1.735c-0.088,0.224,0.09,0.369,0.301,0.321
					c3.773-0.835,5.639-7.588,0.994-8.508c-4.529-0.896-8.236,6.802-9.543,9.939c-1.686,4.049-0.604,11.438,5.402,10.288
					c4.186-0.802,7.143-4,9.896-7.196c-0.005,2.038,0.702,3.868,3.145,4.202c1.594,0.219,3.041-0.66,4.105-1.943
					C195.007,75.263,199.428,75.419,202.373,72.943z M199.068,62.201c2.68-2.678,5.348-0.349,6.982,2.092
					c-0.745,1.905-1.732,3.662-3.014,5.381c-1.834,2.461-5.053,4.084-6.545,0.247C195.5,67.372,197.313,63.955,199.068,62.201z"/>
				<path fill="#CC5327" d="M223.449,66.541c-1.801-1.623-4.662-1.744-6.937-1.733c-1.597,0.006-1.946-1.035-1.298-2.523
					c0.863-1.978,5.344-0.67,7.135-1.131c0.316-0.082,0.75-0.459,0.656-0.828c-1.57-6.223-10.373-0.255-11.555,3.454
					c-2.068,6.491,6.038,3.583,8.91,6.263c3.657,3.41-3.419,9.836-5.802,11.597c-5.151,3.803-10.076,3.545-15.011-0.384
					c-0.719-0.57-1.766,0.65-1.686,1.345c0.701,6.043,5.963,7.03,11.104,5.366c5.313-1.718,10.039-5.696,13.255-10.19
					C224.386,74.75,226.846,69.603,223.449,66.541z"/>
			</g>
		</g>
	</g>
</g>
</svg>
