<?xml version="1.0" encoding="utf-8"?>
<!-- Generator: Adobe Illustrator 16.0.0, SVG Export Plug-In . SVG Version: 6.00 Build 0)  -->
<!DOCTYPE svg PUBLIC "-//W3C//DTD SVG 1.1//EN" "http://www.w3.org/Graphics/SVG/1.1/DTD/svg11.dtd">
<svg version="1.1" id="Layer_1" xmlns="http://www.w3.org/2000/svg" xmlns:xlink="http://www.w3.org/1999/xlink" x="0px" y="0px"
	 width="339.8px" height="70.9px" viewBox="0 0 339.8 70.9" style="enable-background:new 0 0 339.8 70.9;" xml:space="preserve">
<g>
	<g>
		<g>
			<path style="fill:#EB7723;" d="M80.5,54.9c-4.1,4.4-4.7-10.2-4.7-10.2c-0.3-4.8-0.2-9.5-0.2-14.3c0-3-4.5,0.1-4.8,1.7
				c-2,9.8-4.6,20.6-10.6,28.8c-6.4,8.7-8-1.5-8.1-4c-0.1-3,0.3-6.1,0.7-9.1c0.8-5.6,2.2-11.2,3.8-16.6c0.6-2.1-2.5-0.5-2.9,0.7
				c-1.1,3.2-5.4,15.1-6.1,24.4c-1.6,1.7-7.9,7.8-7.8,2.5c0.1-4.1,0.6-8.2,0.8-12.3c0.4-5.9-0.1-11.2-2.5-16.7
				c-0.7-1.6-2.9-0.4-3.7,0.4c-5.3,5-9,10.9-11.6,17.4c-0.2-6.2-0.8-12.4-2.3-18.6c-0.2-0.6-1-0.5-1.4-0.3
				c-7.7,3.7-14.7,8.6-18.8,16.3c-0.6,1.1,0.9,0.6,1.2,0c3.8-5.8,8.6-9.4,14.6-12.6c2.7-1.4,2.8,10.9,2.8,12.7
				c0.2,6.8-0.6,13.7-0.8,20.5c-0.1,2.9,4.3-0.4,4.6-2.1c1.5-10.1,4.4-20.2,11.1-27.9c2.8,9.2,0.7,19.1,0.6,28.6
				c0,0.8,0.5,1.2,1.2,1.3c5.4,0.8,8.6-1.3,11.9-4.5c0.5,4.2,2.4,7,6.9,6.4c8.3-1,13.4-9.7,16.6-18.9c0.2,4.4,0.6,8.8,1.2,13.2
				c0.1,0.8,1.2,0.9,1.8,0.7c5-1.6,8.9-4.5,11.8-8.2c-0.3-1.4-0.8-2.8-1.8-4.2C83,52,81.9,53.5,80.5,54.9z"/>
			<path style="fill:#B3A633;" d="M141.1,53.3c-2.3-2.2-2.3-6.3-1.6-10.3c1.2-3.3,2-6.7,2.5-9.7c0.5-3-4.6,0.2-5.1,1.8
				c-0.6,1.9-1.1,3.9-1.4,6c-2.2,7.1-6.8,15.9-13.7,9.9c-5.7-5,0.2-14.9,3.2-19.5c0.8-1.2,0.2-3-1.4-2.5c-1.4,0.4-8.8,1.5-13.4,0.7
				c-0.2-3.2-1.2-5.9-3.7-6.7c-1.6-0.6-3.4,1.1-4.1,2.3c-3,5.8-1.1,8.6,2.7,9.7c-0.3,3.4-1.3,7-1.7,8.3c-1.7,5.5-5.1,10.5-9.5,14.1
				c0.3-12.5,1.8-27.7,2.2-41.7c11,0.3,22.2-0.8,31.3-4.6c0.5-0.2,1.8-1.7,0.6-1.9c-8.2-1.2-16.6,0.8-24.9,1.1
				c-2.3,0.1-4.6,0.1-6.9,0.1c0-3.3,0-6.5-0.2-9.6c-0.2-3.2-5.1,0.2-5.1,2.3c0,2.2,0,4.6-0.1,7.1c-4.6-0.1-9.1-0.3-13.7-0.2
				c-1,0-3.6,2.7-2,3c4.8,1,10,1.7,15.5,2.2C90,23.5,89.2,32,88,38.3c-0.8,4.1-2,8.3-4.1,11.9c1,1.3,1.5,2.7,1.8,4.2
				c1.3-1.6,2.5-3.4,3.5-5.3c-0.2,4.6-0.5,9.2-0.5,13.8c0,1.9,2.1,1.2,3.1,0.6c8.1-4.8,13.2-12.5,16.5-21.2c0.5-1.4,1.2-3.8,1.6-6.5
				c2.9,0,6.2-0.4,9-1c-3.9,7.8-8.3,22.7,3.7,23c5.6,0.2,9.7-2.6,12.7-6.6c0.9,6.9,4.9,11.2,13.9,5.5c0.1-1.4,0.3-2.9,0.6-4.3
				C146.7,54.8,143.7,55.8,141.1,53.3z"/>
			<path style="fill:#FFD474;" d="M246.3,26c-1.8,0-5.8,3.5-3.3,5c3.9,2.4,6,6.2,7.6,10.5c2.7,7.2-2.8,18.2-10.8,11.5
				c-6.3-5.3-0.3-20.3,2.8-25.8c0.6-1.1,0.6-2.4-0.9-2.6c-8.7-1.2-15.7,0.5-23.1,5.2c-1.1,0.7-2.3,2.2-2,3.6c2.2,9.1,1.3,17-2,25.2
				c-5.7-7.2-7.1-16.8-9.5-25.6c-0.8-2.9-4.9,1.5-5.2,2.9c-0.5,2.5-1,4.9-1.6,7.2c1.2,1.2,2.3,2.3,3.5,3.5c0.1-0.4,0.3-0.8,0.4-1.2
				c0.2,0.7,0.4,1.5,0.6,2.2c0,0,0,0,0.1,0.1c0,0,0,0-0.1-0.1c1.8,6.6,4.3,13,9.4,17.9c1.4,1.4,3.9-0.9,4.5-2.1
				c5.3-10.2,7.4-20.1,5.3-31.3c4.9-2.6,9.3-3.2,14.7-2.6c-4.9,10.8-9.6,34.1,8.7,30.3c13.8-2.9,13.6-19.2,6.3-28.8
				c3.2-0.1,6.3-0.3,9.5-0.5c-0.2-1.6-0.5-3.3-0.9-4.9C255.8,25.7,251.1,25.9,246.3,26z"/>
			<path style="fill:#FFFFFF;" d="M334.2,48.8c-4.5,10.9-10.9,18.5-23.3,16.1c-6.6-1.3-13-4.3-19.4-6.4c-8.5-2.8-16.4-2.8-23.7,0.9
				c5.7-11.9,13.3-22.5,21.2-33c0.6-0.8,1.6-3.5-0.4-3.3c-9.3,1-18.7,1.9-28.1,2.5c0.4,1.6,0.7,3.2,0.9,4.9
				c7.1-0.5,14.1-1.1,21.2-1.9c-8.6,11.6-16.5,23.5-22.2,36.9c-1.2,2.9,2.8,1.6,3.9,0.8c13.8-11.8,32,2.5,46.9,4.6
				c14.8,2.1,23.5-11.4,28.4-23.2C341,44,335.1,46.6,334.2,48.8z"/>
			<path style="fill:#B3A633;" d="M138.8,28.5c1.7-0.4,3.1-1.2,4-2.8c0.7-1.3,1.7-2.8,1.4-4.4c-0.2-1.1-1.3-2.2-2.3-2.7
				c-0.7-0.4-2.4-0.6-2.4,0.7c0,0,0,0,0,0.1c-0.1,0.2-0.2,0.5-0.3,0.7c-0.3,0.6-0.7,1.2-1.1,1.8c-1,1.5-1,3-1.3,4.7
				C136.8,27.5,137.8,28.7,138.8,28.5z M139.6,19.3C139.7,19.2,139.7,19.2,139.6,19.3L139.6,19.3z"/>
			<g>
				<g>
					<path style="fill:#B3A633;" d="M192.4,57.9c-8-7.3-6.8-16.8-6.7-27.1c0-3.3-4.6,0.3-5.1,1.8c-2.5,7.5-4.6,13.1-10.8,18.1
						c-3-7.1-3.8-13.5-3.3-23c0.6-3.8,1.3-8.8,1.9-13.7c7.1-0.5,14.3-1.3,15.9-1.3c2.5,0,6.1-5.5,2.9-5.4c-2,0.1-10.3,0.4-18.2,1.3
						c0.3-2.6,0.6-5.1,0.8-7.3c0.4-3.6-4.7,0-5.1,2.1c-0.3,1.7-0.6,3.7-1,5.9c-5.8,0.9-10.3,2.3-10.1,4.2c0.1,1,4.2,1,9.4,0.8
						c-0.8,5.4-1.4,11.1-1.7,15.5c-0.6,3.7-1.3,5.9-2.3,8.8c-0.8,2.4-4.8,9.8-9.5,13.7c-0.3,1.4-0.4,2.9-0.6,4.3
						c0.5-0.3,1.1-0.7,1.6-1.1c5-3.6,8.5-8.1,11-13c0.6,4.6,1.8,9.1,3.9,13.3c0.6,1.3,2.1,0.7,3.1,0.1c5.6-3.4,9.2-8,11.9-13.3
						c0.3,8.2,2,16.1,9.4,21.2c1.4,1,3.3-0.3,4.1-1.5c3.6-5,6.1-10.3,8-15.9c-1.2-1.2-2.3-2.3-3.5-3.5
						C197.1,48.2,195.3,53.2,192.4,57.9z"/>
				</g>
				<g>
					<path style="fill:#B3A633;" d="M186.6,24.4c-0.5,0.4,1-0.6,1.3-0.8c0.9-0.6,1.8-1.3,2.7-2c1.8-1.3,3.6-2.4,5.3-3.8
						c1.5-1.2,3.8-3.3,3.1-5.6c-0.7-2.1-3.7-1.1-4.9-0.2c-4,3.1-9.2,6.7-11.1,11.6c-0.2,0.6-0.1,1.5,0.6,1.8
						C184.7,25.9,185.8,25,186.6,24.4L186.6,24.4z"/>
				</g>
			</g>
		</g>
	</g>
</g>
</svg>
