<?xml version="1.0" encoding="utf-8"?>
<!-- Generator: Adobe Illustrator 16.0.0, SVG Export Plug-In . SVG Version: 6.00 Build 0)  -->
<!DOCTYPE svg PUBLIC "-//W3C//DTD SVG 1.1//EN" "http://www.w3.org/Graphics/SVG/1.1/DTD/svg11.dtd">
<svg version="1.1" id="Layer_1" xmlns="http://www.w3.org/2000/svg" xmlns:xlink="http://www.w3.org/1999/xlink" x="0px" y="0px"
	 width="223.279px" height="46.691px" viewBox="0 0 223.279 46.691" enable-background="new 0 0 223.279 46.691"
	 xml:space="preserve">
<g>
	<g>
		<g>
			<path fill="#CC5327" d="M52.922,36.213c-2.719,2.864-3.097-6.707-3.099-6.727c-0.164-3.125-0.146-6.265-0.161-9.393
				c-0.01-1.953-2.96,0.035-3.18,1.111c-1.312,6.447-3.013,13.542-6.989,18.894c-4.234,5.695-5.272-0.963-5.35-2.628
				c-0.09-1.995,0.206-4.001,0.481-5.973c0.511-3.671,1.434-7.34,2.49-10.89c0.414-1.394-1.653-0.336-1.931,0.455
				c-0.723,2.078-3.558,9.947-4.033,16.021c-1.057,1.087-5.219,5.134-5.143,1.639c0.061-2.688,0.371-5.381,0.549-8.063
				c0.252-3.852-0.095-7.39-1.628-10.943c-0.461-1.071-1.893-0.257-2.454,0.268c-3.514,3.259-5.943,7.16-7.636,11.411
				c-0.133-4.087-0.504-8.147-1.49-12.206c-0.1-0.415-0.661-0.316-0.933-0.189c-5.09,2.401-9.686,5.672-12.336,10.745
				c-0.366,0.7,0.581,0.379,0.817,0.017c2.503-3.792,5.636-6.208,9.588-8.279c1.775-0.929,1.83,7.144,1.86,8.374
				c0.11,4.485-0.404,8.981-0.493,13.466c-0.039,1.922,2.854-0.257,3.024-1.386c0.996-6.608,2.912-13.242,7.316-18.313
				c1.834,6.063,0.486,12.523,0.368,18.792c-0.011,0.548,0.303,0.791,0.807,0.865c3.539,0.509,5.623-0.83,7.798-2.929
				c0.33,2.763,1.609,4.566,4.555,4.197c5.477-0.683,8.776-6.387,10.88-12.443c0.14,2.894,0.365,5.778,0.78,8.661
				c0.071,0.497,0.782,0.587,1.15,0.469c3.313-1.067,5.828-2.96,7.763-5.369c-0.172-0.938-0.52-1.862-1.156-2.729
				C54.522,34.245,53.802,35.287,52.922,36.213z"/>
			<path fill="#B3A633" d="M92.701,35.148c-1.493-1.427-1.508-4.107-1.057-6.74c0.805-2.168,1.346-4.404,1.674-6.367
				c0.335-1.978-2.997,0.146-3.325,1.163c-0.399,1.229-0.725,2.582-0.952,3.963c-1.453,4.65-4.476,10.439-8.973,6.52
				c-3.762-3.276,0.12-9.803,2.1-12.814c0.525-0.802,0.149-1.948-0.947-1.625c-0.935,0.275-5.774,0.965-8.833,0.438
				c-0.153-2.072-0.818-3.847-2.46-4.431c-1.022-0.365-2.24,0.714-2.673,1.54c-1.997,3.802-0.736,5.657,1.764,6.405
				c-0.193,2.24-0.852,4.589-1.117,5.465c-1.085,3.583-3.32,6.921-6.237,9.298c0.201-8.228,1.216-18.213,1.468-27.398
				c7.2,0.229,14.574-0.536,20.538-3.02c0.354-0.148,1.151-1.112,0.381-1.225c-5.41-0.765-10.927,0.512-16.368,0.746
				c-1.505,0.063-3.005,0.076-4.509,0.063c0.008-2.162-0.024-4.282-0.153-6.275c-0.134-2.085-3.372,0.139-3.372,1.542
				c0,1.413-0.031,3.004-0.09,4.664c-2.992-0.08-5.986-0.184-8.982-0.117c-0.659,0.016-2.393,1.785-1.325,2.001
				c3.141,0.639,6.599,1.138,10.168,1.417c-0.273,5.205-0.799,10.789-1.603,14.947c-0.519,2.683-1.323,5.422-2.674,7.832
				c0.638,0.866,0.984,1.79,1.156,2.729c0.865-1.078,1.625-2.248,2.269-3.514c-0.163,3.021-0.297,6.04-0.333,9.066
				c-0.016,1.261,1.402,0.806,2.06,0.42c5.352-3.143,8.656-8.247,10.847-13.943c0.352-0.907,0.786-2.514,1.053-4.283
				c1.93,0.021,4.042-0.255,5.883-0.645c-2.531,5.146-5.446,14.908,2.425,15.142c3.65,0.111,6.353-1.704,8.331-4.335
				c0.617,4.542,3.2,7.339,9.104,3.591c0.071-0.95,0.188-1.905,0.365-2.832C96.415,36.108,94.401,36.772,92.701,35.148z"/>
			<path fill="#FFD474" d="M161.867,17.183c-1.188,0.015-3.799,2.275-2.171,3.28c2.587,1.6,3.917,4.104,4.966,6.88
				c1.782,4.728-1.847,11.943-7.071,7.539c-4.123-3.479-0.166-13.329,1.861-16.982c0.394-0.709,0.37-1.571-0.562-1.696
				c-5.713-0.765-10.33,0.328-15.147,3.42c-0.719,0.463-1.525,1.435-1.309,2.353c1.422,5.967,0.868,11.204-1.323,16.533
				c-3.748-4.731-4.651-11.062-6.214-16.825c-0.52-1.916-3.228,1.012-3.396,1.921c-0.293,1.609-0.64,3.19-1.047,4.744
				c0.764,0.766,1.528,1.53,2.294,2.294c0.09-0.265,0.194-0.522,0.281-0.792c0.125,0.491,0.26,0.98,0.396,1.468
				c0.014,0.017,0.028,0.029,0.043,0.044c-0.015-0.015-0.029-0.027-0.043-0.044c1.205,4.354,2.817,8.524,6.2,11.738
				c0.943,0.896,2.563-0.583,2.982-1.384c3.515-6.71,4.864-13.232,3.463-20.546c3.212-1.701,6.124-2.072,9.676-1.74
				c-3.196,7.11-6.288,22.441,5.693,19.91c9.09-1.918,8.91-12.64,4.111-18.925c2.082-0.084,4.16-0.206,6.236-0.348
				c-0.136-1.074-0.334-2.146-0.611-3.202C168.079,17.005,164.979,17.15,161.867,17.183z"/>
			<path fill="#F6971D" d="M219.632,32.146c-2.973,7.168-7.14,12.18-15.336,10.579c-4.369-0.854-8.52-2.853-12.733-4.233
				c-5.603-1.839-10.8-1.869-15.582,0.563c3.742-7.794,8.725-14.771,13.917-21.714c0.375-0.5,1.06-2.309-0.282-2.162
				c-6.14,0.68-12.279,1.274-18.437,1.642c0.277,1.057,0.477,2.129,0.611,3.203c4.648-0.314,9.292-0.748,13.933-1.241
				c-5.646,7.654-10.838,15.415-14.584,24.249c-0.812,1.916,1.864,1.068,2.54,0.493c9.039-7.733,21.033,1.675,30.803,3.029
				c9.715,1.349,15.416-7.479,18.645-15.235C224.095,28.99,220.224,30.72,219.632,32.146z"/>
			<path fill="#B3A633" d="M91.222,18.836c1.145-0.248,2.057-0.789,2.629-1.837c0.463-0.85,1.119-1.873,0.925-2.883
				c-0.141-0.747-0.833-1.45-1.482-1.791c-0.483-0.256-1.607-0.375-1.551,0.479c-0.008,0.019-0.009,0.022-0.019,0.051
				c-0.059,0.153-0.137,0.3-0.213,0.447c-0.21,0.403-0.463,0.813-0.703,1.183c-0.634,0.969-0.629,1.966-0.826,3.061
				C89.871,18.158,90.567,18.979,91.222,18.836z M91.758,12.762C91.772,12.712,91.778,12.696,91.758,12.762L91.758,12.762z"/>
			<g>
				<g>
					<path fill="#B3A633" d="M126.457,38.152c-5.262-4.79-4.448-11.043-4.398-17.822c0.018-2.163-3.03,0.202-3.35,1.169
						c-1.626,4.903-3.041,8.635-7.112,11.914c-1.991-4.652-2.472-8.861-2.193-15.083c0.43-2.521,0.864-5.772,1.257-8.999
						c4.635-0.338,9.401-0.85,10.459-0.847c1.61,0.007,4.019-3.585,1.92-3.525c-1.297,0.036-6.788,0.259-11.971,0.854
						c0.191-1.73,0.369-3.38,0.509-4.791c0.233-2.34-3.098-0.01-3.342,1.408c-0.193,1.14-0.409,2.454-0.629,3.854
						c-3.821,0.619-6.803,1.498-6.668,2.737c0.069,0.626,2.771,0.688,6.185,0.527c-0.506,3.549-0.953,7.284-1.109,10.193
						c-0.4,2.407-0.878,3.848-1.503,5.81c-0.496,1.565-3.184,6.451-6.21,8.982c-0.18,0.927-0.295,1.882-0.366,2.832
						c0.353-0.225,0.708-0.46,1.084-0.729c3.278-2.362,5.557-5.297,7.204-8.561c0.398,3.041,1.193,5.992,2.548,8.75
						c0.427,0.864,1.408,0.458,2.044,0.076c3.677-2.217,6.027-5.278,7.791-8.767c0.203,5.394,1.316,10.563,6.17,13.926
						c0.908,0.628,2.136-0.185,2.696-0.957c2.378-3.276,4.038-6.779,5.28-10.463c-0.767-0.764-1.529-1.529-2.295-2.294
						C129.554,31.788,128.319,35.079,126.457,38.152z"/>
				</g>
				<g>
					<path fill="#B3A633" d="M122.628,16.143c-0.315,0.261,0.668-0.385,0.838-0.506c0.591-0.427,1.162-0.877,1.758-1.295
						c1.172-0.822,2.365-1.593,3.488-2.486c0.998-0.793,2.499-2.196,2.04-3.672c-0.432-1.384-2.434-0.739-3.212-0.119
						c-2.604,2.069-6.031,4.421-7.285,7.617c-0.164,0.416-0.081,0.987,0.381,1.167C121.35,17.127,122.116,16.562,122.628,16.143
						L122.628,16.143z"/>
				</g>
			</g>
		</g>
	</g>
</g>
</svg>
