<?xml version="1.0" encoding="utf-8"?>
<!-- Generator: Adobe Illustrator 16.0.0, SVG Export Plug-In . SVG Version: 6.00 Build 0)  -->
<!DOCTYPE svg PUBLIC "-//W3C//DTD SVG 1.1//EN" "http://www.w3.org/Graphics/SVG/1.1/DTD/svg11.dtd">
<svg version="1.1" id="Layer_1" xmlns="http://www.w3.org/2000/svg" xmlns:xlink="http://www.w3.org/1999/xlink" x="0px" y="0px"
	 width="38px" height="36px" viewBox="0 0 38 36" enable-background="new 0 0 38 36" xml:space="preserve">
<g>
	<g>
		<g>
			<g>
				<path fill="#B3A633" d="M18.955,0H0v24.434c6-0.063,11.749-2.009,16.892-5.865c1.635-1.19,3.547-2.402,5.188-3.582
					C20.248,9.997,18.825,5,18.955,0z"/>
				<path fill="#CC5327" d="M38.177,0.093L18.991,0c-0.154,5.044,1.521,9.98,3.327,14.98c5.168-3.673,10.391-7.237,15.836-10.349
					L38.177,0.093z"/>
				<path fill="#EB7723" d="M38,4.585c-6,3.138-10.564,6.726-15.716,10.425c1.475,4.021,3.075,8.08,3.837,12.274
					c1.127,2.815,1.113,5.92,0.063,8.716H38V4.585z"/>
				<path fill="#FFD474" d="M26.156,27.284c-0.762-4.194-2.326-8.254-3.803-12.274c-1.642,1.179-3.828,2.368-5.462,3.559
					C11.749,22.425,6,24.37,0,24.434V36h26.184C27.234,33.204,27.282,30.1,26.156,27.284z"/>
			</g>
			<g>
				<g>
					<defs>
						<rect id="SVGID_23_" width="38" height="36"/>
					</defs>
					<clipPath id="SVGID_2_">
						<use xlink:href="#SVGID_23_"  overflow="visible"/>
					</clipPath>
					<path clip-path="url(#SVGID_2_)" fill="#FFFFFF" d="M54.012,20.096c-2.953,7.125-7.095,12.106-15.24,10.516
						c-4.344-0.848-8.469-2.834-12.658-4.209c-5.566-1.825-10.732-1.856-15.485,0.561c3.719-7.747,8.672-14.682,13.835-21.582
						c0.371-0.498,1.051-2.295-0.283-2.148C18.076,3.908,1.729,5.423-4.39,5.789c0.276,1.049,0.476,2.115,0.608,3.183
						c4.621-0.313,19.479-1.667,24.091-2.16c-5.613,7.61-10.771,15.323-14.495,24.103c-0.807,1.903,1.854,1.063,2.523,0.491
						c8.985-7.687,20.907,1.664,30.617,3.013c9.655,1.34,15.321-7.435,18.528-15.144C58.449,16.958,54.602,18.676,54.012,20.096z"/>
				</g>
			</g>
		</g>
	</g>
</g>
</svg>
